<svg xmlns="http://www.w3.org/2000/svg" xmlns:xlink="http://www.w3.org/1999/xlink" width="100" zoomAndPan="magnify" viewBox="0 0 75 74.999997" height="100" preserveAspectRatio="xMidYMid meet" version="1.0"><defs><clipPath id="e1aa8a2068"><path d="M 13 0.375 L 46 0.375 L 46 11 L 13 11 Z M 13 0.375 " clip-rule="nonzero"/></clipPath><clipPath id="78e21760b8"><path d="M 47 50 L 75 50 L 75 74.625 L 47 74.625 Z M 47 50 " clip-rule="nonzero"/></clipPath></defs><path fill="#ffffff" d="M 0 51.457031 L 2.832031 50.335938 C 3.109375 50.226562 3.429688 50.328125 3.585938 50.585938 L 5.40625 53.5 L 9.25 51.507812 C 9.527344 51.367188 9.863281 51.445312 10.042969 51.699219 L 12.34375 54.933594 L 15.480469 53.136719 C 15.753906 52.980469 16.105469 53.054688 16.289062 53.308594 L 18.117188 55.800781 L 21.703125 53.882812 C 21.984375 53.730469 22.335938 53.820312 22.511719 54.085938 L 24.433594 56.980469 L 27.605469 54.902344 C 27.710938 54.832031 27.828125 54.800781 27.945312 54.800781 C 28.125 54.800781 28.304688 54.878906 28.425781 55.027344 L 30.871094 58.023438 L 32.585938 52.105469 L 1.550781 46.113281 Z M 0 51.457031 " fill-opacity="1" fill-rule="nonzero"/><path fill="#ffffff" d="M 25.554688 22.265625 C 25.535156 22.269531 25.511719 22.269531 25.492188 22.269531 C 25.503906 22.269531 25.523438 22.269531 25.554688 22.265625 Z M 25.554688 22.265625 " fill-opacity="1" fill-rule="nonzero"/><path fill="#ffffff" d="M 11.054688 43.363281 L 21.519531 7.289062 L 19.441406 6.886719 L 17.402344 9.863281 C 17.285156 10.039062 17.089844 10.136719 16.890625 10.136719 C 16.769531 10.136719 16.648438 10.101562 16.539062 10.027344 C 16.257812 9.832031 16.183594 9.445312 16.378906 9.160156 L 18.109375 6.632812 L 13.269531 5.699219 L 12.015625 10.027344 L 13.140625 12.25 C 13.292969 12.558594 13.171875 12.929688 12.863281 13.085938 C 12.773438 13.132812 12.679688 13.152344 12.585938 13.152344 C 12.359375 13.152344 12.140625 13.027344 12.03125 12.8125 L 11.507812 11.777344 L 3.335938 39.949219 L 4.511719 41.046875 C 4.765625 41.28125 4.777344 41.671875 4.542969 41.925781 C 4.421875 42.054688 4.253906 42.121094 4.089844 42.121094 C 3.9375 42.121094 3.785156 42.066406 3.664062 41.953125 L 2.949219 41.289062 L 1.898438 44.914062 L 11.203125 46.710938 C 10.796875 45.535156 10.746094 44.433594 11.054688 43.363281 Z M 14.382812 14.207031 L 16.910156 13.289062 C 17.234375 13.171875 17.589844 13.335938 17.707031 13.660156 C 17.828125 13.980469 17.660156 14.339844 17.335938 14.457031 L 14.808594 15.378906 C 14.738281 15.402344 14.667969 15.414062 14.597656 15.414062 C 14.339844 15.414062 14.101562 15.257812 14.011719 15.003906 C 13.894531 14.683594 14.058594 14.328125 14.382812 14.207031 Z M 13.644531 19.792969 C 13.804688 19.488281 14.183594 19.375 14.484375 19.539062 L 15.816406 20.253906 C 16.117188 20.414062 16.230469 20.792969 16.070312 21.09375 C 15.957031 21.304688 15.742188 21.421875 15.519531 21.421875 C 15.421875 21.421875 15.320312 21.398438 15.226562 21.347656 L 13.898438 20.632812 C 13.59375 20.472656 13.480469 20.09375 13.644531 19.792969 Z M 11.265625 20.105469 C 11.609375 20.082031 11.90625 20.339844 11.929688 20.683594 L 12.113281 23.34375 C 12.140625 23.6875 11.878906 23.984375 11.539062 24.007812 C 11.523438 24.007812 11.507812 24.007812 11.492188 24.007812 C 11.171875 24.007812 10.898438 23.757812 10.875 23.429688 L 10.6875 20.769531 C 10.664062 20.429688 10.921875 20.132812 11.265625 20.105469 Z M 7.238281 33.648438 L 7.6875 31 C 7.742188 30.660156 8.066406 30.433594 8.402344 30.492188 C 8.742188 30.546875 8.96875 30.867188 8.914062 31.207031 L 8.464844 33.855469 C 8.414062 34.15625 8.148438 34.371094 7.851562 34.371094 C 7.816406 34.371094 7.78125 34.371094 7.746094 34.363281 C 7.410156 34.304688 7.179688 33.984375 7.238281 33.648438 Z M 7.695312 44.429688 C 7.652344 44.4375 7.609375 44.441406 7.570312 44.441406 C 7.28125 44.441406 7.019531 44.238281 6.960938 43.945312 L 6.566406 42.015625 C 6.496094 41.679688 6.710938 41.347656 7.050781 41.28125 C 7.386719 41.210938 7.714844 41.429688 7.785156 41.765625 L 8.179688 43.695312 C 8.246094 44.03125 8.03125 44.359375 7.695312 44.429688 Z M 10.054688 38.402344 L 7.71875 39.46875 C 7.632812 39.503906 7.546875 39.523438 7.460938 39.523438 C 7.222656 39.523438 6.996094 39.386719 6.894531 39.160156 C 6.75 38.847656 6.890625 38.476562 7.203125 38.335938 L 9.539062 37.269531 C 9.851562 37.128906 10.222656 37.265625 10.363281 37.578125 C 10.507812 37.890625 10.367188 38.261719 10.054688 38.402344 Z M 10.699219 26.785156 C 10.917969 26.523438 11.3125 26.484375 11.574219 26.707031 L 13.09375 27.972656 C 13.355469 28.195312 13.390625 28.585938 13.171875 28.851562 C 13.046875 28.996094 12.871094 29.074219 12.691406 29.074219 C 12.550781 29.074219 12.410156 29.027344 12.292969 28.929688 L 10.777344 27.660156 C 10.515625 27.441406 10.480469 27.046875 10.699219 26.785156 Z M 10.699219 26.785156 " fill-opacity="1" fill-rule="nonzero"/><path fill="#ffffff" d="M 32.003906 43.3125 C 31.761719 43.074219 31.753906 42.679688 31.996094 42.433594 C 32.234375 42.1875 32.628906 42.183594 32.875 42.425781 L 34.835938 44.34375 L 36.863281 37.363281 L 33.867188 34.890625 C 33.601562 34.671875 33.566406 34.28125 33.785156 34.015625 C 34.003906 33.75 34.394531 33.714844 34.660156 33.933594 L 37.238281 36.058594 L 42.441406 18.117188 L 40.320312 19.304688 C 40.226562 19.359375 40.121094 19.382812 40.019531 19.382812 C 39.800781 19.382812 39.589844 19.269531 39.476562 19.066406 C 39.308594 18.765625 39.414062 18.386719 39.714844 18.21875 L 42.9375 16.414062 L 44.304688 11.6875 L 33.253906 9.554688 L 30.820312 11.773438 C 30.699219 11.878906 30.550781 11.933594 30.402344 11.933594 C 30.230469 11.933594 30.0625 11.867188 29.941406 11.730469 C 29.710938 11.476562 29.726562 11.082031 29.980469 10.851562 L 31.726562 9.261719 L 26.460938 8.242188 L 25.402344 11.886719 L 27.597656 13.675781 C 27.863281 13.894531 27.902344 14.285156 27.6875 14.550781 C 27.5625 14.703125 27.382812 14.78125 27.203125 14.78125 C 27.066406 14.78125 26.925781 14.734375 26.8125 14.640625 L 25.027344 13.1875 L 22.546875 21.738281 C 25.304688 21.035156 25.367188 21.03125 25.445312 21.027344 C 25.789062 21.011719 26.078125 21.285156 26.089844 21.625 C 26.101562 21.945312 25.871094 22.21875 25.5625 22.265625 C 25.332031 22.3125 23.480469 22.785156 22.144531 23.125 L 17.113281 40.472656 L 18.925781 42.164062 C 19.175781 42.398438 19.191406 42.792969 18.957031 43.042969 C 18.832031 43.175781 18.667969 43.242188 18.5 43.242188 C 18.347656 43.242188 18.195312 43.1875 18.078125 43.074219 L 16.726562 41.8125 L 15.085938 47.460938 L 32.933594 50.90625 L 34.445312 45.699219 Z M 35.015625 12.710938 C 35.308594 12.53125 35.691406 12.621094 35.871094 12.914062 L 37.882812 16.175781 C 38.066406 16.46875 37.972656 16.851562 37.683594 17.03125 C 37.582031 17.09375 37.46875 17.125 37.355469 17.125 C 37.148438 17.125 36.945312 17.019531 36.828125 16.828125 L 34.8125 13.566406 C 34.632812 13.277344 34.722656 12.890625 35.015625 12.710938 Z M 33.765625 24.648438 C 34.078125 24.511719 34.445312 24.652344 34.582031 24.96875 L 35.5625 27.214844 C 35.699219 27.53125 35.554688 27.894531 35.242188 28.035156 C 35.160156 28.070312 35.074219 28.085938 34.992188 28.085938 C 34.753906 28.085938 34.523438 27.945312 34.421875 27.710938 L 33.441406 25.464844 C 33.304688 25.152344 33.449219 24.785156 33.765625 24.648438 Z M 22.597656 35.328125 L 23.292969 32.929688 C 23.390625 32.597656 23.734375 32.410156 24.066406 32.503906 C 24.394531 32.601562 24.585938 32.945312 24.488281 33.273438 L 23.792969 35.675781 C 23.714844 35.949219 23.464844 36.125 23.195312 36.125 C 23.136719 36.125 23.082031 36.117188 23.023438 36.101562 C 22.691406 36.003906 22.503906 35.660156 22.597656 35.328125 Z M 23.4375 42.488281 C 23.179688 42.488281 22.941406 42.328125 22.851562 42.070312 C 22.738281 41.746094 22.90625 41.390625 23.230469 41.277344 L 26.988281 39.953125 C 27.3125 39.839844 27.667969 40.011719 27.78125 40.335938 C 27.898438 40.660156 27.726562 41.015625 27.402344 41.128906 L 23.644531 42.453125 C 23.578125 42.476562 23.507812 42.488281 23.4375 42.488281 Z M 27.804688 45.898438 L 25.960938 48.007812 C 25.839844 48.148438 25.664062 48.21875 25.492188 48.21875 C 25.347656 48.21875 25.203125 48.171875 25.082031 48.066406 C 24.824219 47.839844 24.796875 47.449219 25.023438 47.191406 L 26.867188 45.078125 C 27.089844 44.820312 27.484375 44.792969 27.742188 45.019531 C 28 45.246094 28.027344 45.636719 27.804688 45.898438 Z M 28.285156 28.425781 L 26.707031 26.285156 C 26.5 26.007812 26.558594 25.617188 26.835938 25.414062 C 27.113281 25.210938 27.503906 25.269531 27.707031 25.542969 L 29.289062 27.683594 C 29.492188 27.960938 29.433594 28.351562 29.15625 28.554688 C 29.046875 28.636719 28.914062 28.675781 28.789062 28.675781 C 28.597656 28.675781 28.410156 28.589844 28.285156 28.425781 Z M 30.257812 37.542969 C 30.214844 37.550781 30.171875 37.558594 30.128906 37.558594 C 29.839844 37.558594 29.582031 37.355469 29.519531 37.066406 L 28.863281 34.003906 C 28.792969 33.667969 29.007812 33.335938 29.34375 33.265625 C 29.679688 33.195312 30.007812 33.40625 30.082031 33.742188 L 30.738281 36.804688 C 30.808594 37.140625 30.59375 37.472656 30.257812 37.542969 Z M 31.210938 20.3125 L 28.613281 18.453125 C 28.332031 18.253906 28.269531 17.863281 28.46875 17.585938 C 28.667969 17.304688 29.058594 17.242188 29.335938 17.441406 L 31.933594 19.300781 C 32.214844 19.5 32.277344 19.890625 32.078125 20.167969 C 31.957031 20.339844 31.765625 20.429688 31.574219 20.429688 C 31.445312 20.429688 31.320312 20.390625 31.210938 20.3125 Z M 31.210938 20.3125 " fill-opacity="1" fill-rule="nonzero"/><path fill="#ffffff" d="M 12.664062 46.992188 L 13.859375 47.222656 L 24.09375 11.9375 C 24.09375 11.9375 24.09375 11.9375 24.09375 11.933594 L 25.234375 8.007812 L 22.742188 7.527344 L 12.25 43.710938 C 11.957031 44.714844 12.09375 45.792969 12.664062 46.992188 Z M 12.664062 46.992188 " fill-opacity="1" fill-rule="nonzero"/><g clip-path="url(#e1aa8a2068)"><path fill="#ffffff" d="M 45.984375 5.902344 L 42.109375 7.234375 C 41.878906 7.3125 41.621094 7.25 41.453125 7.070312 L 38.738281 4.171875 L 35.234375 6.066406 C 34.949219 6.222656 34.59375 6.128906 34.417969 5.855469 L 32.640625 3.101562 L 29.609375 5.15625 C 29.46875 5.25 29.296875 5.285156 29.132812 5.25 C 28.964844 5.214844 28.824219 5.113281 28.734375 4.96875 L 26.964844 2.121094 L 24.023438 4.324219 C 23.894531 4.421875 23.726562 4.464844 23.5625 4.441406 C 23.398438 4.417969 23.253906 4.332031 23.152344 4.199219 L 20.890625 1.171875 L 17.398438 3.222656 C 17.113281 3.390625 16.746094 3.304688 16.566406 3.027344 L 14.8125 0.382812 L 13.617188 4.496094 L 44.65625 10.488281 Z M 45.984375 5.902344 " fill-opacity="1" fill-rule="nonzero"/></g><g clip-path="url(#78e21760b8)"><path fill="#ffffff" d="M 71.652344 50.011719 L 47.007812 69.96875 L 50.027344 74.621094 L 51.015625 71.71875 C 51.113281 71.433594 51.398438 71.261719 51.695312 71.304688 L 55.074219 71.796875 L 56.066406 67.546875 C 56.136719 67.246094 56.414062 67.039062 56.722656 67.066406 L 60.652344 67.394531 L 61.332031 63.816406 C 61.390625 63.503906 61.671875 63.289062 61.988281 63.3125 L 65.050781 63.523438 L 65.929688 59.519531 C 65.996094 59.207031 66.292969 58.996094 66.609375 59.035156 L 70.039062 59.4375 L 70.527344 55.644531 C 70.566406 55.332031 70.839844 55.101562 71.15625 55.101562 L 75.003906 55.167969 Z M 71.652344 50.011719 " fill-opacity="1" fill-rule="nonzero"/></g><path fill="#ffffff" d="M 44.585938 36.0625 C 44.574219 36.078125 44.5625 36.09375 44.550781 36.113281 C 44.554688 36.105469 44.570312 36.085938 44.585938 36.0625 Z M 44.585938 36.0625 " fill-opacity="1" fill-rule="nonzero"/><path fill="#ffffff" d="M 39.277344 33.488281 L 42.230469 38.027344 C 43.484375 35.457031 43.527344 35.402344 43.570312 35.34375 C 43.78125 35.074219 44.171875 35.027344 44.445312 35.238281 C 44.695312 35.4375 44.753906 35.789062 44.589844 36.054688 C 44.480469 36.261719 43.628906 37.996094 43.019531 39.242188 L 52.84375 54.355469 L 55.289062 54.0625 C 55.628906 54.019531 55.9375 54.261719 55.980469 54.605469 C 56.019531 54.945312 55.777344 55.253906 55.4375 55.296875 L 53.597656 55.515625 L 56.796875 60.441406 L 70.972656 48.960938 L 68.023438 44.425781 L 64.648438 44.75 C 64.628906 44.753906 64.609375 44.753906 64.585938 44.753906 C 64.269531 44.753906 64 44.511719 63.96875 44.191406 C 63.9375 43.851562 64.1875 43.546875 64.527344 43.511719 L 67.257812 43.25 L 63.300781 37.160156 L 59.503906 37.859375 C 59.464844 37.867188 59.425781 37.867188 59.390625 37.867188 C 59.097656 37.867188 58.835938 37.660156 58.777344 37.359375 C 58.71875 37.019531 58.941406 36.695312 59.277344 36.636719 L 62.566406 36.03125 L 52.40625 20.398438 L 51.925781 22.800781 C 51.867188 23.097656 51.605469 23.300781 51.316406 23.300781 C 51.277344 23.300781 51.234375 23.296875 51.195312 23.289062 C 50.859375 23.222656 50.640625 22.894531 50.707031 22.554688 L 51.433594 18.90625 L 49.050781 15.238281 L 43.199219 19.980469 Z M 53.375 46.980469 C 53.269531 47.046875 53.152344 47.078125 53.039062 47.078125 C 52.835938 47.078125 52.636719 46.980469 52.515625 46.796875 L 51.15625 44.703125 C 50.96875 44.417969 51.050781 44.03125 51.339844 43.84375 C 51.625 43.65625 52.011719 43.738281 52.199219 44.027344 L 53.558594 46.117188 C 53.746094 46.40625 53.664062 46.792969 53.375 46.980469 Z M 63.164062 49.136719 C 63.503906 49.089844 63.820312 49.324219 63.867188 49.664062 L 64.265625 52.449219 C 64.316406 52.789062 64.078125 53.101562 63.738281 53.152344 C 63.710938 53.15625 63.679688 53.15625 63.652344 53.15625 C 63.347656 53.15625 63.082031 52.933594 63.035156 52.625 L 62.636719 49.839844 C 62.589844 49.5 62.824219 49.1875 63.164062 49.136719 Z M 59.65625 46.070312 C 59.976562 46.195312 60.136719 46.554688 60.011719 46.875 L 58.574219 50.621094 C 58.480469 50.867188 58.242188 51.019531 57.992188 51.019531 C 57.917969 51.019531 57.84375 51.003906 57.769531 50.976562 C 57.449219 50.855469 57.289062 50.496094 57.414062 50.171875 L 58.851562 46.429688 C 58.976562 46.109375 59.335938 45.949219 59.65625 46.070312 Z M 55.332031 40.28125 C 55.496094 39.980469 55.871094 39.867188 56.175781 40.03125 L 58.910156 41.511719 C 59.210938 41.675781 59.324219 42.054688 59.160156 42.355469 C 59.046875 42.5625 58.832031 42.679688 58.613281 42.679688 C 58.511719 42.679688 58.410156 42.65625 58.316406 42.605469 L 55.582031 41.125 C 55.28125 40.960938 55.167969 40.585938 55.332031 40.28125 Z M 51.699219 31.296875 C 51.796875 30.96875 52.144531 30.78125 52.472656 30.882812 L 54.800781 31.585938 C 55.128906 31.6875 55.316406 32.03125 55.21875 32.363281 C 55.136719 32.628906 54.890625 32.804688 54.621094 32.804688 C 54.5625 32.804688 54.5 32.796875 54.441406 32.777344 L 52.113281 32.074219 C 51.785156 31.972656 51.597656 31.625 51.699219 31.296875 Z M 51.085938 36.710938 C 51.425781 36.734375 51.6875 37.03125 51.664062 37.371094 C 51.644531 37.703125 51.371094 37.953125 51.042969 37.953125 C 51.03125 37.953125 51.015625 37.953125 51.003906 37.953125 L 48.363281 37.78125 C 48.019531 37.757812 47.761719 37.460938 47.785156 37.117188 C 47.804688 36.773438 48.101562 36.515625 48.445312 36.539062 Z M 44.46875 22.746094 C 44.519531 22.40625 44.835938 22.171875 45.175781 22.222656 L 47.980469 22.644531 C 48.320312 22.695312 48.550781 23.011719 48.5 23.351562 C 48.453125 23.660156 48.1875 23.882812 47.886719 23.882812 C 47.855469 23.882812 47.824219 23.878906 47.792969 23.875 L 44.992188 23.453125 C 44.652344 23.402344 44.417969 23.082031 44.46875 22.746094 Z M 46.472656 29.242188 C 46.808594 29.15625 47.144531 29.355469 47.230469 29.691406 C 47.316406 30.023438 47.117188 30.359375 46.78125 30.445312 L 43.695312 31.238281 C 43.640625 31.25 43.589844 31.257812 43.539062 31.257812 C 43.261719 31.257812 43.007812 31.070312 42.9375 30.789062 C 42.851562 30.457031 43.050781 30.117188 43.386719 30.03125 Z M 46.472656 29.242188 " fill-opacity="1" fill-rule="nonzero"/><path fill="#ffffff" d="M 37.890625 38.28125 L 52.136719 60.195312 C 52.703125 61.070312 53.601562 61.660156 54.871094 62 L 55.828125 61.226562 L 38.820312 35.066406 Z M 37.890625 38.28125 " fill-opacity="1" fill-rule="nonzero"/><path fill="#ffffff" d="M 51.09375 60.875 L 37.433594 39.859375 L 35.574219 46.265625 L 36.679688 47.089844 C 36.957031 47.296875 37.015625 47.683594 36.808594 47.960938 C 36.6875 48.125 36.5 48.210938 36.308594 48.210938 C 36.179688 48.210938 36.050781 48.171875 35.9375 48.089844 L 35.203125 47.542969 L 34.347656 50.496094 L 43.515625 64.597656 L 45.097656 64.40625 C 45.4375 64.367188 45.75 64.609375 45.789062 64.949219 C 45.832031 65.292969 45.589844 65.601562 45.246094 65.640625 L 44.269531 65.761719 L 46.324219 68.921875 L 53.71875 62.933594 C 52.566406 62.484375 51.699219 61.804688 51.09375 60.875 Z M 38.96875 50.917969 C 38.671875 50.917969 38.410156 50.707031 38.355469 50.40625 C 38.296875 50.066406 38.519531 49.746094 38.859375 49.683594 L 40.800781 49.339844 C 41.136719 49.28125 41.460938 49.507812 41.519531 49.84375 C 41.578125 50.183594 41.355469 50.503906 41.015625 50.566406 L 39.078125 50.910156 C 39.039062 50.914062 39.003906 50.917969 38.96875 50.917969 Z M 42.164062 57.589844 C 42.046875 57.683594 41.90625 57.730469 41.765625 57.730469 C 41.585938 57.730469 41.410156 57.652344 41.285156 57.503906 L 39.582031 55.445312 C 39.363281 55.179688 39.398438 54.789062 39.664062 54.570312 C 39.925781 54.351562 40.320312 54.386719 40.539062 54.652344 L 42.246094 56.710938 C 42.464844 56.976562 42.425781 57.371094 42.164062 57.589844 Z M 46.707031 58.433594 L 45.996094 60.921875 C 45.917969 61.195312 45.667969 61.371094 45.398438 61.371094 C 45.339844 61.371094 45.28125 61.363281 45.226562 61.347656 C 44.894531 61.253906 44.703125 60.910156 44.800781 60.578125 L 45.511719 58.09375 C 45.605469 57.761719 45.953125 57.570312 46.28125 57.664062 C 46.613281 57.761719 46.800781 58.105469 46.707031 58.433594 Z M 49.722656 64.15625 C 49.609375 64.363281 49.398438 64.476562 49.179688 64.476562 C 49.078125 64.476562 48.972656 64.453125 48.878906 64.398438 L 47.164062 63.449219 C 46.863281 63.285156 46.757812 62.90625 46.921875 62.605469 C 47.089844 62.304688 47.46875 62.195312 47.765625 62.363281 L 49.480469 63.3125 C 49.78125 63.476562 49.890625 63.855469 49.722656 64.15625 Z M 49.722656 64.15625 " fill-opacity="1" fill-rule="nonzero"/><path fill="#ffffff" d="M 43.804688 17.886719 L 48.367188 14.191406 L 45.953125 10.476562 Z M 43.804688 17.886719 " fill-opacity="1" fill-rule="nonzero"/></svg>