<svg xmlns="http://www.w3.org/2000/svg" xmlns:xlink="http://www.w3.org/1999/xlink" width="50" zoomAndPan="magnify" viewBox="0 0 37.5 37.499999" height="50" preserveAspectRatio="xMidYMid meet" version="1.0"><defs><clipPath id="c97fa91832"><path d="M 17 1.117188 L 21 1.117188 L 21 8 L 17 8 Z M 17 1.117188 " clip-rule="nonzero"/></clipPath><clipPath id="34c4874114"><path d="M 5 7 L 33 7 L 33 35.90625 L 5 35.90625 Z M 5 7 " clip-rule="nonzero"/></clipPath><clipPath id="f9d7cf0e80"><path d="M 5 16 L 33 16 L 33 35.90625 L 5 35.90625 Z M 5 16 " clip-rule="nonzero"/></clipPath></defs><g clip-path="url(#c97fa91832)"><path fill="#58b835" d="M 18.605469 7.929688 C 18.605469 7.929688 19.578125 4.882812 17.386719 2.089844 L 19.839844 1.117188 C 19.839844 1.117188 20.554688 5.484375 19.335938 7.976562 L 18.605469 7.929688 " fill-opacity="1" fill-rule="nonzero"/></g><g clip-path="url(#34c4874114)"><path fill="#e62138" d="M 18.214844 7.585938 C 18.214844 7.585938 9.359375 6.71875 6.539062 11.691406 C 3.722656 16.660156 6.367188 23.382812 9.699219 28.101562 C 13.03125 32.816406 15.875 35.046875 19.015625 35.476562 C 22.15625 35.90625 25.257812 33.039062 28.449219 26.761719 C 31.640625 20.488281 33.277344 15.035156 31.0625 11.402344 C 28.851562 7.773438 23.707031 7.265625 18.214844 7.585938 " fill-opacity="1" fill-rule="nonzero"/></g><path fill="#4fa036" d="M 17.480469 6.796875 C 17.480469 6.796875 14.554688 4.492188 11.023438 4.976562 L 9.925781 4.910156 C 9.925781 4.910156 14.070312 7.769531 17.480469 6.796875 " fill-opacity="1" fill-rule="nonzero"/><path fill="#4fa036" d="M 19.601562 7.476562 C 19.601562 7.476562 18.257812 4.609375 15.609375 4.25 L 14.851562 3.933594 C 14.851562 3.933594 16.886719 7.605469 19.601562 7.476562 " fill-opacity="1" fill-rule="nonzero"/><path fill="#4fa036" d="M 21.367188 6.675781 C 21.367188 6.675781 24.308594 5.113281 27.722656 5.957031 L 29.792969 6.675781 C 29.792969 6.675781 24.402344 8.011719 21.367188 6.675781 " fill-opacity="1" fill-rule="nonzero"/><path fill="#4fa036" d="M 19.050781 7.179688 C 19.050781 7.179688 20.757812 4.867188 23.675781 4.675781 L 25.523438 4.753906 C 25.523438 4.753906 21.855469 7.554688 19.050781 7.179688 " fill-opacity="1" fill-rule="nonzero"/><path fill="#58b835" d="M 14.3125 9.105469 C 14.3125 9.105469 12.117188 9.957031 11.386719 12.261719 C 10.65625 14.570312 11.386719 14.933594 11.386719 14.933594 C 11.386719 14.933594 14.921875 11.898438 16.140625 11.414062 C 17.359375 10.925781 18.714844 9.957031 18.714844 9.957031 C 18.714844 9.957031 20.527344 10.925781 21.992188 12.019531 C 23.453125 13.113281 25.648438 14.203125 25.890625 14.933594 C 26.136719 15.660156 26.746094 13.71875 25.890625 12.019531 C 25.039062 10.320312 23.578125 9.105469 23.578125 9.105469 C 23.578125 9.105469 27.84375 9.957031 29.183594 11.414062 C 30.523438 12.871094 31.675781 12.722656 31.675781 12.722656 C 31.675781 12.722656 30.769531 8.574219 28.453125 7.503906 C 26.136719 6.433594 23.902344 5.800781 21.367188 6.675781 C 21.367188 6.675781 19.066406 7.40625 17.480469 6.796875 C 15.898438 6.191406 13.824219 5.972656 11.875 6.265625 C 9.925781 6.554688 8.339844 7.285156 6.753906 8.863281 C 6.753906 8.863281 11.632812 7.890625 14.3125 9.105469 " fill-opacity="1" fill-rule="nonzero"/><g clip-path="url(#f9d7cf0e80)"><path fill="#dd2529" d="M 28.449219 26.761719 C 30.480469 22.765625 31.878906 19.105469 32.058594 16.035156 C 31.871094 16.195312 31.90625 16.574219 31.675781 17.125 C 30.402344 20.152344 29.425781 21.792969 27.722656 24.707031 C 26.015625 27.621094 22.472656 28.65625 19.601562 28.652344 C 15.195312 28.644531 13.09375 27.800781 9.925781 24.523438 C 7.40625 21.921875 5.476562 17.378906 5.378906 17.148438 C 5.585938 20.949219 7.488281 24.96875 9.699219 28.101562 C 13.03125 32.816406 15.875 35.046875 19.015625 35.476562 C 22.160156 35.90625 25.257812 33.039062 28.449219 26.761719 " fill-opacity="1" fill-rule="nonzero"/></g><path fill="#dd2529" d="M 23.332031 20.4375 C 23.332031 21.03125 23.097656 21.511719 22.808594 21.511719 C 22.519531 21.511719 22.289062 21.03125 22.289062 20.4375 C 22.289062 19.84375 22.519531 19.363281 22.808594 19.363281 C 23.097656 19.363281 23.332031 19.84375 23.332031 20.4375 " fill-opacity="1" fill-rule="nonzero"/><path fill="#f4d1b1" d="M 23.113281 20.171875 C 23.113281 20.550781 22.976562 20.859375 22.808594 20.859375 C 22.640625 20.859375 22.503906 20.550781 22.503906 20.171875 C 22.503906 19.792969 22.640625 19.484375 22.808594 19.484375 C 22.976562 19.484375 23.113281 19.792969 23.113281 20.171875 " fill-opacity="1" fill-rule="nonzero"/><path fill="#dd2529" d="M 26.609375 18.5 C 26.742188 19.078125 26.621094 19.601562 26.339844 19.664062 C 26.058594 19.726562 25.722656 19.3125 25.589844 18.730469 C 25.460938 18.152344 25.582031 17.632812 25.863281 17.570312 C 26.144531 17.507812 26.476562 17.921875 26.609375 18.5 " fill-opacity="1" fill-rule="nonzero"/><path fill="#f4d1b1" d="M 26.339844 18.289062 C 26.421875 18.660156 26.359375 18.988281 26.195312 19.027344 C 26.03125 19.0625 25.828125 18.792969 25.746094 18.425781 C 25.660156 18.054688 25.722656 17.726562 25.886719 17.6875 C 26.050781 17.652344 26.253906 17.921875 26.339844 18.289062 " fill-opacity="1" fill-rule="nonzero"/><path fill="#dd2529" d="M 18.675781 19.160156 C 18.628906 19.75 18.359375 20.210938 18.074219 20.1875 C 17.785156 20.167969 17.589844 19.667969 17.632812 19.078125 C 17.679688 18.488281 17.949219 18.023438 18.238281 18.046875 C 18.527344 18.070312 18.722656 18.566406 18.675781 19.160156 " fill-opacity="1" fill-rule="nonzero"/><path fill="#f4d1b1" d="M 18.445312 18.835938 C 18.464844 19.214844 18.347656 19.527344 18.179688 19.539062 C 18.011719 19.546875 17.855469 19.246094 17.835938 18.867188 C 17.816406 18.488281 17.9375 18.175781 18.105469 18.167969 C 18.273438 18.160156 18.425781 18.457031 18.445312 18.835938 " fill-opacity="1" fill-rule="nonzero"/><path fill="#dd2529" d="M 14.941406 18.75 C 14.789062 19.320312 14.441406 19.730469 14.164062 19.65625 C 13.882812 19.582031 13.777344 19.058594 13.929688 18.484375 C 14.078125 17.910156 14.425781 17.503906 14.707031 17.578125 C 14.984375 17.648438 15.089844 18.175781 14.941406 18.75 " fill-opacity="1" fill-rule="nonzero"/><path fill="#f4d1b1" d="M 14.769531 18.390625 C 14.722656 18.765625 14.550781 19.054688 14.382812 19.035156 C 14.214844 19.011719 14.117188 18.691406 14.164062 18.316406 C 14.210938 17.9375 14.386719 17.652344 14.554688 17.671875 C 14.71875 17.691406 14.816406 18.015625 14.769531 18.390625 " fill-opacity="1" fill-rule="nonzero"/><path fill="#dd2529" d="M 11.554688 17.441406 C 11.40625 18.015625 11.058594 18.421875 10.777344 18.347656 C 10.5 18.277344 10.394531 17.753906 10.542969 17.179688 C 10.695312 16.605469 11.042969 16.199219 11.320312 16.269531 C 11.601562 16.34375 11.707031 16.867188 11.554688 17.441406 " fill-opacity="1" fill-rule="nonzero"/><path fill="#f4d1b1" d="M 11.386719 17.082031 C 11.335938 17.460938 11.164062 17.746094 10.996094 17.726562 C 10.828125 17.707031 10.734375 17.382812 10.78125 17.007812 C 10.828125 16.632812 11 16.34375 11.167969 16.363281 C 11.335938 16.386719 11.433594 16.707031 11.386719 17.082031 " fill-opacity="1" fill-rule="nonzero"/><path fill="#dd2529" d="M 9.007812 14.023438 C 8.789062 14.574219 8.394531 14.933594 8.125 14.832031 C 7.855469 14.722656 7.816406 14.191406 8.035156 13.640625 C 8.253906 13.089844 8.648438 12.726562 8.914062 12.832031 C 9.183594 12.9375 9.226562 13.46875 9.007812 14.023438 " fill-opacity="1" fill-rule="nonzero"/><path fill="#f4d1b1" d="M 8.878906 13.648438 C 8.789062 14.015625 8.582031 14.28125 8.417969 14.238281 C 8.253906 14.199219 8.195312 13.867188 8.289062 13.5 C 8.382812 13.132812 8.589844 12.867188 8.753906 12.90625 C 8.914062 12.949219 8.972656 13.277344 8.878906 13.648438 " fill-opacity="1" fill-rule="nonzero"/><path fill="#dd2529" d="M 7.113281 18.304688 C 7.03125 18.890625 6.734375 19.335938 6.449219 19.296875 C 6.164062 19.253906 5.996094 18.746094 6.078125 18.160156 C 6.160156 17.574219 6.457031 17.128906 6.746094 17.167969 C 7.03125 17.207031 7.195312 17.714844 7.113281 18.304688 " fill-opacity="1" fill-rule="nonzero"/><path fill="#f4d1b1" d="M 6.902344 17.96875 C 6.902344 18.347656 6.761719 18.652344 6.59375 18.652344 C 6.425781 18.652344 6.289062 18.34375 6.292969 17.964844 C 6.296875 17.585938 6.433594 17.277344 6.601562 17.277344 C 6.769531 17.28125 6.90625 17.589844 6.902344 17.96875 " fill-opacity="1" fill-rule="nonzero"/><path fill="#dd2529" d="M 9.433594 20.625 C 9.351562 21.210938 9.054688 21.65625 8.769531 21.617188 C 8.484375 21.574219 8.316406 21.066406 8.398438 20.480469 C 8.480469 19.890625 8.777344 19.449219 9.066406 19.488281 C 9.351562 19.527344 9.515625 20.035156 9.433594 20.625 " fill-opacity="1" fill-rule="nonzero"/><path fill="#f4d1b1" d="M 9.222656 20.289062 C 9.222656 20.667969 9.082031 20.972656 8.914062 20.972656 C 8.746094 20.972656 8.613281 20.664062 8.613281 20.285156 C 8.617188 19.90625 8.753906 19.597656 8.921875 19.597656 C 9.09375 19.601562 9.226562 19.910156 9.222656 20.289062 " fill-opacity="1" fill-rule="nonzero"/><path fill="#dd2529" d="M 12.847656 23.019531 C 12.765625 23.609375 12.46875 24.050781 12.183594 24.011719 C 11.894531 23.972656 11.730469 23.464844 11.8125 22.878906 C 11.894531 22.289062 12.191406 21.847656 12.476562 21.886719 C 12.765625 21.925781 12.929688 22.433594 12.847656 23.019531 " fill-opacity="1" fill-rule="nonzero"/><path fill="#f4d1b1" d="M 12.636719 22.683594 C 12.632812 23.066406 12.496094 23.371094 12.328125 23.371094 C 12.160156 23.367188 12.023438 23.058594 12.027344 22.679688 C 12.03125 22.300781 12.167969 21.996094 12.335938 21.996094 C 12.503906 21.996094 12.640625 22.304688 12.636719 22.683594 " fill-opacity="1" fill-rule="nonzero"/><path fill="#dd2529" d="M 17.269531 14.519531 C 17.1875 15.105469 16.886719 15.550781 16.601562 15.511719 C 16.316406 15.472656 16.152344 14.964844 16.234375 14.375 C 16.316406 13.789062 16.613281 13.34375 16.898438 13.382812 C 17.183594 13.421875 17.351562 13.929688 17.269531 14.519531 " fill-opacity="1" fill-rule="nonzero"/><path fill="#f4d1b1" d="M 17.058594 14.183594 C 17.054688 14.5625 16.914062 14.867188 16.746094 14.867188 C 16.578125 14.867188 16.445312 14.558594 16.449219 14.179688 C 16.449219 13.800781 16.589844 13.492188 16.757812 13.496094 C 16.925781 13.496094 17.058594 13.804688 17.058594 14.183594 " fill-opacity="1" fill-rule="nonzero"/><path fill="#dd2529" d="M 22.273438 15.101562 C 22.261719 15.691406 22.019531 16.167969 21.730469 16.164062 C 21.441406 16.160156 21.214844 15.671875 21.226562 15.082031 C 21.238281 14.488281 21.480469 14.011719 21.769531 14.015625 C 22.058594 14.023438 22.28125 14.507812 22.273438 15.101562 " fill-opacity="1" fill-rule="nonzero"/><path fill="#f4d1b1" d="M 22.023438 14.792969 C 22.0625 15.167969 21.964844 15.488281 21.796875 15.507812 C 21.628906 15.527344 21.457031 15.238281 21.417969 14.859375 C 21.375 14.484375 21.472656 14.164062 21.640625 14.144531 C 21.808594 14.125 21.980469 14.414062 22.023438 14.792969 " fill-opacity="1" fill-rule="nonzero"/><path fill="#dd2529" d="M 28.355469 13.464844 C 28.480469 14.046875 28.351562 14.5625 28.070312 14.625 C 27.785156 14.683594 27.457031 14.261719 27.335938 13.679688 C 27.210938 13.101562 27.339844 12.582031 27.621094 12.523438 C 27.90625 12.460938 28.234375 12.882812 28.355469 13.464844 " fill-opacity="1" fill-rule="nonzero"/><path fill="#f4d1b1" d="M 28.042969 13.222656 C 28.171875 13.578125 28.144531 13.914062 27.988281 13.96875 C 27.828125 14.023438 27.597656 13.78125 27.46875 13.421875 C 27.34375 13.066406 27.367188 12.730469 27.527344 12.675781 C 27.6875 12.617188 27.917969 12.863281 28.042969 13.222656 " fill-opacity="1" fill-rule="nonzero"/><path fill="#dd2529" d="M 30.292969 19.046875 C 30.242188 19.640625 29.96875 20.097656 29.679688 20.074219 C 29.390625 20.050781 29.199219 19.550781 29.25 18.957031 C 29.300781 18.367188 29.578125 17.910156 29.863281 17.933594 C 30.152344 17.957031 30.34375 18.457031 30.292969 19.046875 " fill-opacity="1" fill-rule="nonzero"/><path fill="#f4d1b1" d="M 30.0625 18.722656 C 30.082031 19.101562 29.957031 19.414062 29.789062 19.421875 C 29.621094 19.429688 29.472656 19.128906 29.457031 18.75 C 29.4375 18.371094 29.5625 18.058594 29.730469 18.050781 C 29.898438 18.042969 30.046875 18.34375 30.0625 18.722656 " fill-opacity="1" fill-rule="nonzero"/><path fill="#dd2529" d="M 28.621094 22.628906 C 28.566406 23.21875 28.292969 23.675781 28.007812 23.652344 C 27.71875 23.628906 27.527344 23.128906 27.578125 22.539062 C 27.628906 21.949219 27.902344 21.488281 28.191406 21.511719 C 28.476562 21.539062 28.671875 22.035156 28.621094 22.628906 " fill-opacity="1" fill-rule="nonzero"/><path fill="#f4d1b1" d="M 28.390625 22.304688 C 28.410156 22.683594 28.285156 22.996094 28.117188 23.003906 C 27.949219 23.011719 27.800781 22.710938 27.78125 22.332031 C 27.765625 21.953125 27.886719 21.636719 28.054688 21.632812 C 28.222656 21.625 28.375 21.925781 28.390625 22.304688 " fill-opacity="1" fill-rule="nonzero"/><path fill="#dd2529" d="M 20.625 23.203125 C 20.574219 23.796875 20.296875 24.253906 20.011719 24.230469 C 19.722656 24.203125 19.53125 23.707031 19.582031 23.113281 C 19.632812 22.523438 19.90625 22.066406 20.195312 22.089844 C 20.484375 22.113281 20.675781 22.613281 20.625 23.203125 " fill-opacity="1" fill-rule="nonzero"/><path fill="#f4d1b1" d="M 20.394531 22.878906 C 20.414062 23.257812 20.289062 23.570312 20.121094 23.578125 C 19.953125 23.585938 19.804688 23.285156 19.785156 22.90625 C 19.769531 22.527344 19.890625 22.214844 20.058594 22.207031 C 20.226562 22.199219 20.378906 22.5 20.394531 22.878906 " fill-opacity="1" fill-rule="nonzero"/><path fill="#dd2529" d="M 16.625 24.410156 C 16.574219 25 16.300781 25.457031 16.011719 25.433594 C 15.726562 25.410156 15.535156 24.910156 15.585938 24.320312 C 15.636719 23.730469 15.910156 23.269531 16.199219 23.292969 C 16.484375 23.320312 16.675781 23.816406 16.625 24.410156 " fill-opacity="1" fill-rule="nonzero"/><path fill="#f4d1b1" d="M 16.398438 24.085938 C 16.414062 24.464844 16.292969 24.777344 16.125 24.785156 C 15.957031 24.792969 15.804688 24.492188 15.789062 24.113281 C 15.773438 23.734375 15.894531 23.421875 16.0625 23.414062 C 16.230469 23.40625 16.378906 23.707031 16.398438 24.085938 " fill-opacity="1" fill-rule="nonzero"/><path fill="#dd2529" d="M 14.140625 27.253906 C 14.234375 27.839844 14.082031 28.351562 13.800781 28.398438 C 13.515625 28.445312 13.203125 28.007812 13.109375 27.421875 C 13.011719 26.835938 13.164062 26.324219 13.449219 26.277344 C 13.734375 26.230469 14.042969 26.667969 14.140625 27.253906 " fill-opacity="1" fill-rule="nonzero"/><path fill="#f4d1b1" d="M 13.839844 26.996094 C 13.949219 27.359375 13.90625 27.691406 13.746094 27.742188 C 13.585938 27.789062 13.363281 27.535156 13.253906 27.171875 C 13.144531 26.808594 13.1875 26.476562 13.347656 26.425781 C 13.507812 26.378906 13.726562 26.632812 13.839844 26.996094 " fill-opacity="1" fill-rule="nonzero"/><path fill="#dd2529" d="M 10.597656 24.945312 C 10.691406 25.53125 10.539062 26.042969 10.257812 26.089844 C 9.972656 26.136719 9.660156 25.699219 9.566406 25.117188 C 9.46875 24.53125 9.621094 24.019531 9.90625 23.972656 C 10.191406 23.925781 10.5 24.359375 10.597656 24.945312 " fill-opacity="1" fill-rule="nonzero"/><path fill="#f4d1b1" d="M 10.296875 24.6875 C 10.40625 25.050781 10.363281 25.382812 10.203125 25.433594 C 10.042969 25.480469 9.820312 25.226562 9.710938 24.863281 C 9.601562 24.5 9.644531 24.167969 9.804688 24.117188 C 9.964844 24.070312 10.183594 24.324219 10.296875 24.6875 " fill-opacity="1" fill-rule="nonzero"/><path fill="#dd2529" d="M 19.386719 27.910156 C 19.480469 28.496094 19.328125 29.007812 19.042969 29.054688 C 18.757812 29.101562 18.449219 28.664062 18.355469 28.078125 C 18.257812 27.496094 18.410156 26.980469 18.695312 26.933594 C 18.980469 26.886719 19.289062 27.324219 19.386719 27.910156 " fill-opacity="1" fill-rule="nonzero"/><path fill="#f4d1b1" d="M 19.082031 27.652344 C 19.195312 28.015625 19.152344 28.347656 18.992188 28.398438 C 18.832031 28.445312 18.609375 28.191406 18.5 27.828125 C 18.390625 27.464844 18.433594 27.132812 18.59375 27.082031 C 18.753906 27.035156 18.972656 27.289062 19.082031 27.652344 " fill-opacity="1" fill-rule="nonzero"/><path fill="#dd2529" d="M 25.121094 26.296875 C 25.09375 26.890625 24.839844 27.359375 24.554688 27.347656 C 24.265625 27.335938 24.050781 26.847656 24.078125 26.253906 C 24.101562 25.660156 24.355469 25.191406 24.644531 25.203125 C 24.933594 25.214844 25.144531 25.703125 25.121094 26.296875 " fill-opacity="1" fill-rule="nonzero"/><path fill="#f4d1b1" d="M 24.878906 25.984375 C 24.914062 26.359375 24.804688 26.679688 24.636719 26.695312 C 24.46875 26.710938 24.304688 26.414062 24.269531 26.039062 C 24.238281 25.660156 24.347656 25.339844 24.515625 25.328125 C 24.683594 25.3125 24.84375 25.605469 24.878906 25.984375 " fill-opacity="1" fill-rule="nonzero"/><path fill="#dd2529" d="M 22.808594 31.222656 C 22.785156 31.816406 22.53125 32.285156 22.242188 32.273438 C 21.953125 32.261719 21.742188 31.769531 21.765625 31.179688 C 21.789062 30.585938 22.042969 30.117188 22.332031 30.128906 C 22.621094 30.140625 22.835938 30.628906 22.808594 31.222656 " fill-opacity="1" fill-rule="nonzero"/><path fill="#f4d1b1" d="M 22.566406 30.910156 C 22.601562 31.285156 22.492188 31.605469 22.324219 31.621094 C 22.15625 31.632812 21.992188 31.339844 21.960938 30.960938 C 21.925781 30.585938 22.035156 30.265625 22.203125 30.25 C 22.371094 30.238281 22.535156 30.53125 22.566406 30.910156 " fill-opacity="1" fill-rule="nonzero"/><path fill="#dd2529" d="M 17.484375 31.609375 C 17.535156 32.203125 17.34375 32.699219 17.054688 32.726562 C 16.769531 32.75 16.492188 32.292969 16.441406 31.699219 C 16.390625 31.109375 16.582031 30.609375 16.871094 30.585938 C 17.160156 30.5625 17.433594 31.019531 17.484375 31.609375 " fill-opacity="1" fill-rule="nonzero"/><path fill="#f4d1b1" d="M 17.203125 31.332031 C 17.285156 31.699219 17.21875 32.03125 17.054688 32.066406 C 16.890625 32.101562 16.691406 31.832031 16.609375 31.460938 C 16.527344 31.089844 16.59375 30.761719 16.757812 30.726562 C 16.921875 30.6875 17.121094 30.960938 17.203125 31.332031 " fill-opacity="1" fill-rule="nonzero"/><path fill="#4fa036" d="M 21.71875 11.167969 C 21.140625 10.378906 20.046875 8.863281 18.71875 9.257812 C 18.71875 9.257812 15.691406 11.507812 14.265625 12.617188 C 14.265625 12.617188 14.261719 12.621094 14.257812 12.621094 C 15.003906 12.066406 15.714844 11.582031 16.140625 11.414062 C 17.359375 10.925781 18.714844 9.957031 18.714844 9.957031 C 18.714844 9.957031 20.527344 10.925781 21.992188 12.019531 C 22.585938 12.460938 23.296875 12.902344 23.949219 13.320312 C 23.949219 13.320312 22.300781 11.957031 21.71875 11.167969 " fill-opacity="1" fill-rule="nonzero"/><path fill="#4fa036" d="M 23.578125 9.105469 L 25.28125 11.011719 C 24.480469 9.863281 23.578125 9.105469 23.578125 9.105469 " fill-opacity="1" fill-rule="nonzero"/><path fill="#4fa036" d="M 31.675781 12.722656 C 31.675781 12.722656 31.671875 12.707031 31.667969 12.699219 C 30.84375 12.410156 29.828125 11.890625 29.519531 11.414062 C 29.058594 10.703125 28.148438 10.078125 26.65625 9.46875 C 25.160156 8.863281 23.578125 9.105469 23.578125 9.105469 C 23.578125 9.105469 27.84375 9.957031 29.183594 11.414062 C 30.523438 12.871094 31.675781 12.722656 31.675781 12.722656 " fill-opacity="1" fill-rule="nonzero"/><path fill="#4fa036" d="M 14.3125 9.105469 C 14.3125 9.105469 10.71875 6.890625 6.753906 8.863281 C 6.753906 8.863281 11.632812 7.890625 14.3125 9.105469 " fill-opacity="1" fill-rule="nonzero"/></svg>