<svg xmlns="http://www.w3.org/2000/svg" xmlns:xlink="http://www.w3.org/1999/xlink" width="50" zoomAndPan="magnify" viewBox="0 0 37.5 37.499999" height="50" preserveAspectRatio="xMidYMid meet" version="1.0"><defs><clipPath id="174e39afaa"><path d="M 1.523438 2 L 33 2 L 33 17 L 1.523438 17 Z M 1.523438 2 " clip-rule="nonzero"/></clipPath><clipPath id="cae17d237c"><path d="M 11 13 L 24 13 L 24 35.777344 L 11 35.777344 Z M 11 13 " clip-rule="nonzero"/></clipPath><clipPath id="aacac415c1"><path d="M 11 13 L 21 13 L 21 35.777344 L 11 35.777344 Z M 11 13 " clip-rule="nonzero"/></clipPath></defs><path fill="#40286a" d="M 19.136719 15.5625 C 19.136719 15.5625 25.292969 11.0625 30.410156 14.960938 C 35.53125 18.863281 30.625 27.796875 30.625 27.796875 C 30.625 27.796875 31.054688 26.449219 28.011719 23.046875 C 24.933594 19.640625 28.15625 18.4375 19.136719 15.5625 Z M 19.136719 15.5625 " fill-opacity="1" fill-rule="evenodd"/><path fill="#40286a" d="M 20.101562 19.570312 C 20.101562 19.570312 16.738281 16.734375 11.40625 19.714844 C 6.109375 22.761719 2.707031 30.988281 2.707031 30.988281 C 2.707031 30.988281 3.066406 21.984375 9.542969 16.273438 C 16.023438 10.566406 24.074219 12.621094 20.101562 19.570312 Z M 20.101562 19.570312 " fill-opacity="1" fill-rule="evenodd"/><g clip-path="url(#174e39afaa)"><path fill="#8d64aa" d="M 1.5625 13.542969 C 1.5625 13.542969 4.105469 9.109375 9.507812 10.601562 C 14.914062 12.089844 18.242188 15.140625 18.242188 15.140625 C 18.242188 15.140625 23.824219 17.761719 25.613281 15.03125 C 27.40625 12.335938 27.332031 11.804688 29.050781 11.523438 C 30.769531 11.238281 32.238281 12.265625 32.238281 12.265625 C 32.238281 12.265625 30.554688 5.316406 26.257812 4.820312 C 21.964844 4.324219 19.53125 12.019531 19.53125 12.019531 C 18.527344 0.992188 11.621094 1.132812 6.824219 4.996094 C 4.175781 7.125 3.566406 10.105469 1.5625 13.542969 Z M 1.5625 13.542969 " fill-opacity="1" fill-rule="evenodd"/></g><path fill="#603991" d="M 29.121094 6.34375 C 28.335938 5.566406 27.367188 4.960938 26.257812 4.820312 C 22.394531 4.394531 20.066406 10.527344 19.636719 11.804688 C 19.636719 11.804688 23.253906 6.308594 25.542969 6.203125 C 26.726562 6.132812 28.050781 6.238281 29.121094 6.34375 Z M 19.53125 11.699219 C 18.386719 0.992188 11.585938 1.167969 6.824219 4.996094 C 4.496094 6.875 3.746094 9.429688 2.207031 12.371094 C 3.925781 10.140625 6.574219 7.054688 8.863281 6.097656 C 12.335938 4.605469 18.636719 10.777344 19.53125 11.699219 Z M 19.53125 11.699219 " fill-opacity="1" fill-rule="evenodd"/><path fill="#efea5b" d="M 20.855469 14.5 C 20.855469 14.5 19.851562 11.59375 19.496094 9.785156 C 19.136719 7.976562 19.171875 7.335938 19.171875 7.335938 C 19.171875 7.335938 19.78125 7.265625 19.78125 6.664062 C 19.78125 6.097656 18.171875 5.988281 18.097656 6.734375 C 18.027344 7.480469 18.921875 7.410156 18.921875 7.410156 C 18.921875 7.410156 18.886719 11.378906 20.855469 14.5 Z M 20.855469 14.5 " fill-opacity="1" fill-rule="evenodd"/><path fill="#efea5b" d="M 20.605469 14.144531 C 20.605469 14.144531 21.390625 11.523438 22.035156 9.394531 C 22.679688 7.300781 22.929688 6.839844 23.433594 6.734375 C 23.933594 6.628906 24.289062 5.636719 23.394531 5.386719 C 22.464844 5.140625 22.144531 6.132812 22.285156 6.378906 C 22.429688 6.628906 22.644531 6.839844 22.644531 6.839844 C 22.644531 6.839844 20.53125 12.300781 20.605469 14.144531 Z M 20.605469 14.144531 " fill-opacity="1" fill-rule="evenodd"/><path fill="#efea5b" d="M 20.640625 14.324219 C 20.640625 14.324219 22.25 11.839844 23.21875 10.636719 C 24.148438 9.394531 25.078125 8.71875 25.078125 8.71875 C 25.078125 8.71875 25.792969 9.144531 26.117188 8.222656 C 26.4375 7.335938 25.007812 7.335938 24.757812 7.515625 C 24.503906 7.726562 24.828125 8.472656 24.828125 8.472656 C 24.828125 8.472656 21.820312 10.882812 20.640625 14.324219 Z M 20.640625 14.324219 " fill-opacity="1" fill-rule="evenodd"/><path fill="#efea5b" d="M 20.746094 14.324219 C 20.746094 14.324219 19.066406 11.734375 18.277344 10.105469 C 17.488281 8.4375 17.347656 7.796875 17.347656 7.796875 C 17.347656 7.796875 17.917969 7.585938 17.742188 7.019531 C 17.597656 6.453125 16.023438 6.769531 16.128906 7.480469 C 16.273438 8.1875 17.097656 7.90625 17.097656 7.90625 C 17.097656 7.90625 18.0625 11.769531 20.746094 14.324219 Z M 20.746094 14.324219 " fill-opacity="1" fill-rule="evenodd"/><g clip-path="url(#cae17d237c)"><path fill="#603991" d="M 19.566406 13.4375 C 19.566406 13.4375 14.160156 13.332031 12.015625 20.953125 C 9.867188 28.542969 16.773438 35.777344 16.773438 35.777344 C 16.773438 35.777344 15.558594 34.039062 18.707031 30.457031 C 21.929688 26.839844 26.796875 17.832031 19.566406 13.4375 Z M 19.566406 13.4375 " fill-opacity="1" fill-rule="evenodd"/></g><g clip-path="url(#aacac415c1)"><path fill="#895ca6" d="M 16.558594 34.394531 C 15.449219 31.839844 13.769531 27.335938 14.519531 24.179688 C 14.949219 22.300781 16.238281 20.246094 17.597656 18.507812 C 18.386719 17.515625 19.171875 16.558594 19.851562 15.8125 C 19.851562 15.8125 19.851562 15.8125 19.851562 15.777344 C 20.210938 15.386719 20.53125 14.996094 20.78125 14.714844 C 20.820312 14.640625 20.890625 14.570312 20.960938 14.535156 C 20.960938 14.535156 20.960938 14.5 20.996094 14.5 C 20.925781 14.464844 20.855469 14.394531 20.820312 14.324219 C 20.78125 14.289062 20.746094 14.289062 20.746094 14.253906 C 20.710938 14.21875 20.710938 14.21875 20.675781 14.179688 C 20.640625 14.144531 20.605469 14.109375 20.53125 14.074219 C 20.246094 13.863281 19.960938 13.648438 19.636719 13.4375 C 19.636719 13.4375 19.601562 13.4375 19.496094 13.4375 C 19.136719 13.472656 18.171875 13.578125 17.023438 14.144531 C 15.628906 14.855469 13.910156 16.273438 12.730469 19.144531 C 12.515625 19.679688 12.300781 20.28125 12.121094 20.953125 C 9.867188 28.542969 16.773438 35.777344 16.773438 35.777344 C 16.773438 35.777344 16.453125 35.316406 16.558594 34.394531 Z M 16.558594 34.394531 " fill-opacity="1" fill-rule="evenodd"/></g></svg>