<svg xmlns="http://www.w3.org/2000/svg" xmlns:xlink="http://www.w3.org/1999/xlink" width="50" zoomAndPan="magnify" viewBox="0 0 37.5 37.499999" height="50" preserveAspectRatio="xMidYMid meet" version="1.0"><defs><clipPath id="d5159832b2"><path d="M 17 2 L 35.730469 2 L 35.730469 35 L 17 35 Z M 17 2 " clip-rule="nonzero"/></clipPath></defs><path fill="#231f20" d="M 18.921875 17.984375 L 18.8125 18.5 C 21.507812 19.105469 24.25 20.277344 26.277344 21.664062 C 27.292969 22.355469 28.128906 23.105469 28.695312 23.84375 C 28.976562 24.210938 29.195312 24.574219 29.335938 24.925781 C 29.476562 25.277344 29.546875 25.613281 29.546875 25.933594 C 29.546875 26.230469 29.488281 26.519531 29.359375 26.808594 C 29.230469 27.101562 29.027344 27.398438 28.730469 27.699219 C 28.578125 27.851562 28.535156 28.089844 28.621094 28.292969 C 28.707031 28.484375 28.746094 28.683594 28.746094 28.890625 C 28.746094 29.105469 28.703125 29.332031 28.613281 29.570312 C 28.449219 29.992188 28.132812 30.449219 27.652344 30.894531 C 26.933594 31.5625 25.851562 32.195312 24.457031 32.65625 C 23.058594 33.113281 21.347656 33.40625 19.367188 33.40625 C 17.984375 33.40625 16.472656 33.265625 14.839844 32.941406 C 11.136719 32.214844 8.320312 30.902344 6.453125 29.441406 C 5.523438 28.707031 4.828125 27.9375 4.375 27.195312 C 3.921875 26.449219 3.710938 25.738281 3.710938 25.105469 C 3.710938 24.691406 3.796875 24.308594 3.972656 23.953125 C 4.148438 23.59375 4.417969 23.257812 4.796875 22.953125 C 4.992188 22.796875 5.050781 22.515625 4.9375 22.289062 C 4.8125 22.050781 4.765625 21.847656 4.765625 21.652344 C 4.765625 21.453125 4.816406 21.257812 4.929688 21.050781 C 5.03125 20.867188 5.179688 20.675781 5.378906 20.484375 C 5.730469 20.152344 6.234375 19.820312 6.859375 19.523438 C 7.792969 19.078125 8.988281 18.707031 10.3125 18.453125 C 11.640625 18.199219 13.09375 18.058594 14.554688 18.058594 C 16.011719 18.058594 17.46875 18.199219 18.8125 18.5 L 18.921875 17.984375 L 19.035156 17.464844 C 17.605469 17.140625 16.074219 16.996094 14.554688 16.996094 C 13.226562 16.996094 11.90625 17.109375 10.667969 17.3125 C 9.738281 17.464844 8.855469 17.675781 8.046875 17.929688 C 6.835938 18.3125 5.800781 18.796875 5.027344 19.398438 C 4.644531 19.699219 4.324219 20.03125 4.089844 20.40625 C 3.976562 20.59375 3.882812 20.792969 3.820312 21.003906 C 3.757812 21.210938 3.722656 21.433594 3.722656 21.652344 C 3.722656 22.03125 3.824219 22.417969 4.011719 22.785156 L 4.472656 22.535156 L 4.152344 22.121094 C 3.667969 22.507812 3.292969 22.964844 3.042969 23.472656 C 2.789062 23.980469 2.667969 24.535156 2.667969 25.105469 C 2.667969 25.980469 2.957031 26.882812 3.488281 27.757812 C 4.292969 29.066406 5.644531 30.335938 7.511719 31.425781 C 9.378906 32.511719 11.765625 33.421875 14.640625 33.988281 C 16.335938 34.320312 17.914062 34.46875 19.367188 34.46875 C 22.539062 34.464844 25.097656 33.765625 26.894531 32.734375 C 27.792969 32.21875 28.503906 31.621094 29.003906 30.972656 C 29.253906 30.648438 29.449219 30.308594 29.582031 29.960938 C 29.71875 29.613281 29.789062 29.25 29.789062 28.890625 C 29.789062 28.539062 29.71875 28.1875 29.574219 27.859375 L 29.097656 28.074219 L 29.464844 28.453125 C 29.839844 28.074219 30.121094 27.671875 30.3125 27.246094 C 30.5 26.824219 30.59375 26.378906 30.589844 25.933594 C 30.589844 25.453125 30.484375 24.976562 30.300781 24.519531 C 29.972656 23.71875 29.402344 22.960938 28.667969 22.242188 C 27.566406 21.171875 26.085938 20.191406 24.417969 19.367188 C 22.75 18.542969 20.890625 17.878906 19.035156 17.464844 L 18.921875 17.984375 " fill-opacity="1" fill-rule="nonzero"/><path fill="#231f20" d="M 27.8125 27.761719 L 28.117188 27.332031 C 28.117188 27.332031 28.097656 27.316406 28.066406 27.292969 C 28.03125 27.269531 27.980469 27.230469 27.914062 27.183594 L 27.894531 27.167969 C 27.738281 27.0625 27.519531 26.933594 27.230469 26.792969 C 27.085938 26.71875 26.917969 26.640625 26.726562 26.570312 L 26.546875 27.066406 L 26.761719 26.582031 C 26.5625 26.492188 26.367188 26.425781 26.183594 26.355469 L 26.164062 26.347656 C 25.757812 26.214844 25.292969 26.074219 24.773438 25.949219 C 24.652344 25.921875 24.523438 25.890625 24.394531 25.859375 L 24.375 25.855469 C 24.242188 25.828125 24.109375 25.800781 23.972656 25.777344 L 23.875 26.296875 L 23.992188 25.78125 C 23.6875 25.707031 23.390625 25.671875 23.121094 25.621094 L 23.113281 25.621094 C 22.515625 25.523438 21.886719 25.445312 21.238281 25.378906 L 21.230469 25.375 C 20.582031 25.316406 19.90625 25.257812 19.210938 25.222656 C 18.519531 25.183594 17.828125 25.15625 17.109375 25.136719 L 17.105469 25.136719 C 16.394531 25.121094 15.679688 25.105469 14.980469 25.089844 C 14.273438 25.074219 13.574219 25.050781 12.894531 25.007812 C 12.214844 24.960938 11.554688 24.902344 10.9375 24.800781 C 10.316406 24.707031 9.734375 24.578125 9.226562 24.410156 L 9.21875 24.410156 C 8.714844 24.253906 8.273438 24.042969 7.902344 23.835938 L 7.902344 23.832031 C 7.554688 23.640625 7.292969 23.417969 7.074219 23.21875 L 6.726562 23.617188 L 7.082031 23.226562 C 6.984375 23.136719 6.90625 23.046875 6.839844 22.96875 C 6.773438 22.894531 6.722656 22.824219 6.675781 22.761719 L 6.261719 23.085938 L 6.6875 22.78125 C 6.644531 22.714844 6.609375 22.667969 6.585938 22.632812 C 6.5625 22.601562 6.550781 22.582031 6.550781 22.582031 L 6.125 22.886719 L 5.851562 23.339844 C 5.851562 23.339844 5.925781 23.386719 6.070312 23.472656 L 6.339844 23.019531 L 6.0625 23.46875 C 6.148438 23.523438 6.246094 23.582031 6.359375 23.640625 C 6.472656 23.699219 6.597656 23.765625 6.734375 23.832031 L 6.738281 23.835938 C 7.050781 23.980469 7.417969 24.109375 7.828125 24.230469 L 7.832031 24.230469 C 8.273438 24.355469 8.757812 24.429688 9.277344 24.492188 L 9.28125 24.492188 C 9.84375 24.554688 10.453125 24.578125 11.101562 24.578125 C 11.679688 24.578125 12.28125 24.558594 12.910156 24.535156 C 13.582031 24.507812 14.273438 24.476562 14.976562 24.449219 L 14.972656 24.449219 C 15.558594 24.433594 16.148438 24.414062 16.742188 24.414062 C 16.871094 24.414062 17 24.414062 17.132812 24.417969 L 17.136719 24.417969 C 17.847656 24.417969 18.59375 24.460938 19.316406 24.515625 L 19.355469 23.988281 L 19.296875 24.515625 C 19.671875 24.558594 20.03125 24.589844 20.371094 24.636719 L 20.441406 24.109375 L 20.359375 24.632812 C 20.722656 24.691406 21.066406 24.742188 21.402344 24.808594 L 21.496094 24.285156 L 21.394531 24.804688 C 22.070312 24.941406 22.714844 25.097656 23.300781 25.292969 L 23.304688 25.292969 C 23.601562 25.386719 23.882812 25.488281 24.144531 25.59375 L 24.164062 25.601562 C 24.417969 25.699219 24.664062 25.816406 24.914062 25.9375 L 24.917969 25.9375 C 25.386719 26.164062 25.792969 26.417969 26.128906 26.664062 L 26.128906 26.660156 C 26.46875 26.90625 26.726562 27.140625 26.894531 27.332031 L 26.910156 27.351562 C 26.996094 27.441406 27.066406 27.527344 27.125 27.609375 C 27.179688 27.6875 27.226562 27.761719 27.265625 27.828125 L 27.710938 27.546875 L 27.25 27.800781 C 27.28125 27.859375 27.304688 27.90625 27.316406 27.933594 C 27.324219 27.945312 27.328125 27.957031 27.328125 27.960938 L 27.332031 27.964844 L 27.542969 27.875 L 27.332031 27.960938 L 27.332031 27.964844 L 27.542969 27.875 L 27.332031 27.960938 L 27.8125 27.761719 L 28.117188 27.332031 L 27.8125 27.761719 L 28.296875 27.5625 C 28.289062 27.546875 28.25 27.453125 28.167969 27.296875 L 28.152344 27.265625 C 28.109375 27.195312 28.046875 27.097656 27.96875 26.984375 C 27.886719 26.871094 27.785156 26.742188 27.660156 26.609375 L 27.285156 26.980469 L 27.675781 26.628906 C 27.433594 26.347656 27.117188 26.078125 26.738281 25.796875 L 26.734375 25.796875 C 26.355469 25.519531 25.894531 25.230469 25.359375 24.976562 L 25.363281 24.976562 C 25.109375 24.855469 24.832031 24.71875 24.519531 24.605469 L 24.339844 25.101562 L 24.539062 24.613281 C 24.238281 24.488281 23.933594 24.378906 23.617188 24.277344 L 23.621094 24.28125 C 22.980469 24.070312 22.300781 23.90625 21.597656 23.761719 L 21.59375 23.761719 C 21.234375 23.695312 20.875 23.640625 20.519531 23.585938 L 20.511719 23.582031 C 20.136719 23.53125 19.769531 23.5 19.414062 23.457031 L 19.394531 23.457031 C 18.65625 23.398438 17.890625 23.355469 17.140625 23.351562 L 17.140625 23.882812 L 17.148438 23.351562 C 17.011719 23.351562 16.875 23.351562 16.742188 23.351562 C 16.125 23.351562 15.527344 23.371094 14.941406 23.386719 L 14.9375 23.386719 C 14.230469 23.414062 13.539062 23.445312 12.867188 23.472656 C 12.246094 23.496094 11.65625 23.515625 11.101562 23.515625 C 10.480469 23.515625 9.902344 23.492188 9.390625 23.4375 L 9.394531 23.4375 C 8.902344 23.378906 8.464844 23.308594 8.113281 23.207031 C 7.738281 23.097656 7.414062 22.980469 7.179688 22.871094 L 6.960938 23.351562 L 7.1875 22.875 C 7.054688 22.808594 6.9375 22.75 6.84375 22.699219 C 6.746094 22.648438 6.667969 22.601562 6.617188 22.570312 L 6.609375 22.566406 C 6.46875 22.480469 6.394531 22.433594 6.394531 22.433594 C 6.183594 22.300781 5.914062 22.339844 5.742188 22.523438 C 5.574219 22.703125 5.554688 22.984375 5.695312 23.1875 C 5.695312 23.191406 5.742188 23.261719 5.832031 23.390625 L 5.847656 23.40625 C 5.894531 23.476562 5.964844 23.5625 6.050781 23.667969 C 6.136719 23.769531 6.242188 23.882812 6.371094 24.003906 L 6.382812 24.015625 C 6.621094 24.230469 6.953125 24.515625 7.402344 24.765625 L 7.398438 24.761719 C 7.816406 25 8.328125 25.242188 8.914062 25.425781 L 9.066406 24.917969 L 8.90625 25.421875 C 9.488281 25.613281 10.121094 25.75 10.777344 25.851562 C 11.441406 25.957031 12.128906 26.019531 12.828125 26.066406 C 13.53125 26.113281 14.242188 26.136719 14.957031 26.152344 C 15.660156 26.167969 16.371094 26.183594 17.085938 26.199219 L 17.082031 26.199219 C 17.789062 26.21875 18.472656 26.246094 19.15625 26.285156 C 19.832031 26.320312 20.492188 26.375 21.132812 26.433594 L 21.128906 26.433594 C 21.765625 26.5 22.378906 26.578125 22.945312 26.667969 L 23.027344 26.144531 L 22.9375 26.667969 C 23.242188 26.722656 23.527344 26.761719 23.757812 26.816406 L 23.773438 26.820312 C 23.910156 26.84375 24.042969 26.871094 24.175781 26.898438 L 24.273438 26.375 L 24.15625 26.894531 C 24.285156 26.925781 24.410156 26.957031 24.535156 26.984375 L 24.539062 26.984375 C 25.019531 27.097656 25.453125 27.230469 25.839844 27.359375 L 26.003906 26.855469 L 25.820312 27.351562 C 26.023438 27.429688 26.207031 27.492188 26.328125 27.550781 L 26.363281 27.5625 C 26.515625 27.621094 26.648438 27.683594 26.769531 27.746094 C 27.023438 27.871094 27.210938 27.980469 27.324219 28.058594 L 27.609375 27.613281 L 27.304688 28.042969 C 27.4375 28.144531 27.511719 28.195312 27.511719 28.195312 C 27.699219 28.332031 27.957031 28.324219 28.136719 28.179688 C 28.320312 28.035156 28.382812 27.78125 28.296875 27.5625 L 27.8125 27.761719 " fill-opacity="1" fill-rule="nonzero"/><g clip-path="url(#d5159832b2)"><path fill="#231f20" d="M 33.984375 15.402344 L 33.476562 15.523438 C 33.984375 17.792969 34.25 20.289062 34.25 22.636719 C 34.25 23.921875 34.171875 25.160156 34.007812 26.292969 C 33.890625 27.140625 33.722656 27.929688 33.511719 28.625 C 33.355469 29.148438 33.171875 29.621094 32.96875 30.03125 C 32.664062 30.648438 32.3125 31.117188 31.933594 31.417969 C 31.742188 31.570312 31.546875 31.683594 31.34375 31.757812 C 31.140625 31.835938 30.925781 31.875 30.6875 31.875 C 30.519531 31.875 30.339844 31.851562 30.148438 31.808594 C 29.925781 31.757812 29.695312 31.855469 29.582031 32.054688 C 29.382812 32.394531 29.140625 32.632812 28.855469 32.796875 C 28.570312 32.960938 28.234375 33.046875 27.847656 33.050781 C 27.292969 33.050781 26.621094 32.859375 25.898438 32.429688 C 24.8125 31.789062 23.609375 30.613281 22.5 28.835938 C 21.390625 27.058594 20.367188 24.6875 19.613281 21.664062 C 18.914062 18.867188 18.613281 16.285156 18.613281 14.019531 C 18.613281 12.535156 18.746094 11.183594 18.972656 10 C 19.316406 8.222656 19.894531 6.824219 20.570312 5.902344 C 20.910156 5.4375 21.269531 5.097656 21.632812 4.875 C 22 4.65625 22.359375 4.550781 22.734375 4.550781 C 22.992188 4.550781 23.253906 4.597656 23.53125 4.707031 C 23.78125 4.804688 24.058594 4.699219 24.183594 4.460938 C 24.367188 4.105469 24.566406 3.878906 24.765625 3.742188 C 24.867188 3.671875 24.96875 3.625 25.074219 3.59375 C 25.183594 3.558594 25.296875 3.542969 25.421875 3.542969 C 25.675781 3.542969 25.980469 3.617188 26.316406 3.773438 C 26.613281 3.910156 26.9375 4.109375 27.269531 4.371094 C 27.855469 4.824219 28.476562 5.460938 29.089844 6.226562 C 30.011719 7.378906 30.914062 8.832031 31.683594 10.429688 C 32.449219 12.03125 33.082031 13.777344 33.476562 15.523438 L 33.984375 15.402344 L 34.492188 15.285156 C 33.773438 12.089844 32.308594 8.941406 30.648438 6.5625 C 29.820312 5.375 28.941406 4.375 28.066406 3.65625 C 27.628906 3.300781 27.191406 3.011719 26.75 2.804688 C 26.3125 2.601562 25.867188 2.480469 25.421875 2.480469 C 25.203125 2.480469 24.988281 2.511719 24.78125 2.574219 C 24.464844 2.667969 24.171875 2.839844 23.917969 3.074219 C 23.660156 3.3125 23.441406 3.609375 23.257812 3.964844 L 23.722656 4.214844 L 23.910156 3.71875 C 23.523438 3.566406 23.125 3.488281 22.734375 3.488281 C 22.351562 3.488281 21.976562 3.5625 21.621094 3.703125 C 20.992188 3.953125 20.429688 4.402344 19.941406 5 C 19.207031 5.898438 18.621094 7.136719 18.210938 8.660156 C 17.804688 10.179688 17.570312 11.988281 17.570312 14.019531 C 17.570312 16.382812 17.882812 19.046875 18.601562 21.925781 C 19.636719 26.078125 21.179688 29.097656 22.835938 31.097656 C 23.667969 32.101562 24.523438 32.847656 25.375 33.347656 C 26.222656 33.851562 27.0625 34.109375 27.847656 34.113281 C 28.394531 34.113281 28.910156 33.984375 29.363281 33.726562 C 29.816406 33.46875 30.199219 33.082031 30.480469 32.597656 L 30.03125 32.328125 L 29.914062 32.84375 C 30.175781 32.90625 30.4375 32.9375 30.6875 32.9375 C 31.105469 32.9375 31.507812 32.851562 31.875 32.6875 C 32.195312 32.542969 32.488281 32.34375 32.753906 32.101562 C 33.21875 31.675781 33.601562 31.121094 33.921875 30.472656 C 34.398438 29.496094 34.734375 28.300781 34.960938 26.96875 C 35.183594 25.636719 35.292969 24.164062 35.292969 22.636719 C 35.292969 20.207031 35.019531 17.640625 34.492188 15.285156 L 33.984375 15.402344 " fill-opacity="1" fill-rule="nonzero"/></g><path fill="#231f20" d="M 29.71875 30.84375 L 30.238281 30.902344 C 30.238281 30.902344 30.242188 30.875 30.246094 30.824219 C 30.253906 30.773438 30.261719 30.699219 30.273438 30.601562 L 30.273438 30.582031 C 30.289062 30.410156 30.296875 30.191406 30.296875 29.917969 C 30.296875 29.847656 30.296875 29.773438 30.296875 29.691406 L 30.296875 29.695312 C 30.292969 29.503906 30.28125 29.292969 30.261719 29.0625 L 29.742188 29.117188 L 30.261719 29.09375 C 30.25 28.847656 30.21875 28.609375 30.195312 28.378906 L 30.195312 28.359375 C 30.125 27.871094 30.039062 27.320312 29.914062 26.726562 L 29.914062 26.730469 C 29.882812 26.585938 29.851562 26.441406 29.820312 26.289062 L 29.816406 26.273438 C 29.78125 26.125 29.742188 25.972656 29.703125 25.820312 L 29.199219 25.949219 L 29.707031 25.835938 C 29.632812 25.496094 29.53125 25.179688 29.453125 24.875 L 29.453125 24.867188 C 29.269531 24.214844 29.054688 23.539062 28.824219 22.851562 L 28.820312 22.847656 C 28.582031 22.164062 28.328125 21.457031 28.050781 20.75 C 27.777344 20.039062 27.492188 19.335938 27.191406 18.613281 L 27.1875 18.609375 C 26.882812 17.894531 26.578125 17.179688 26.277344 16.476562 L 26.28125 16.476562 C 25.980469 15.765625 25.6875 15.058594 25.421875 14.355469 C 25.15625 13.652344 24.910156 12.957031 24.71875 12.273438 C 24.523438 11.589844 24.371094 10.921875 24.28125 10.296875 L 24.28125 10.292969 C 24.203125 9.773438 24.171875 9.269531 24.171875 8.816406 C 24.171875 8.730469 24.175781 8.648438 24.175781 8.5625 C 24.183594 8.066406 24.257812 7.636719 24.328125 7.277344 L 23.816406 7.175781 L 24.324219 7.289062 C 24.398438 6.949219 24.484375 6.707031 24.546875 6.535156 L 24.054688 6.351562 L 24.539062 6.550781 C 24.574219 6.460938 24.601562 6.394531 24.617188 6.347656 C 24.636719 6.304688 24.644531 6.28125 24.644531 6.28125 L 24.164062 6.082031 L 23.640625 6.054688 C 23.640625 6.054688 23.636719 6.15625 23.625 6.355469 L 24.144531 6.386719 L 23.625 6.351562 C 23.617188 6.472656 23.613281 6.609375 23.613281 6.769531 C 23.613281 6.910156 23.617188 7.066406 23.621094 7.238281 L 23.621094 7.246094 C 23.636719 7.636719 23.691406 8.082031 23.773438 8.566406 C 23.859375 9.078125 24.011719 9.605469 24.191406 10.160156 C 24.566406 11.285156 25.128906 12.488281 25.769531 13.769531 C 26.09375 14.414062 26.425781 15.082031 26.761719 15.757812 L 26.761719 15.753906 C 27.09375 16.441406 27.4375 17.140625 27.75 17.867188 L 27.753906 17.871094 C 28.066406 18.574219 28.363281 19.34375 28.640625 20.097656 L 29.128906 19.910156 L 28.632812 20.078125 C 28.761719 20.476562 28.898438 20.855469 29.011719 21.226562 L 29.507812 21.070312 L 29.007812 21.21875 C 29.121094 21.613281 29.230469 21.992188 29.328125 22.367188 L 29.324219 22.363281 C 29.511719 23.125 29.667969 23.871094 29.769531 24.589844 L 29.769531 24.59375 C 29.820312 24.957031 29.863281 25.304688 29.890625 25.640625 L 29.890625 25.660156 C 29.925781 25.984375 29.9375 26.316406 29.945312 26.644531 L 29.945312 26.648438 C 29.949219 26.773438 29.953125 26.898438 29.953125 27.019531 C 29.953125 27.511719 29.921875 27.96875 29.875 28.375 C 29.816406 28.886719 29.738281 29.316406 29.644531 29.636719 L 29.636719 29.652344 C 29.597656 29.8125 29.550781 29.953125 29.507812 30.070312 C 29.460938 30.191406 29.417969 30.289062 29.378906 30.375 L 29.855469 30.59375 L 29.390625 30.351562 C 29.351562 30.425781 29.324219 30.484375 29.304688 30.515625 C 29.292969 30.535156 29.285156 30.546875 29.28125 30.554688 L 29.277344 30.5625 L 29.539062 30.726562 L 29.277344 30.558594 L 29.277344 30.5625 L 29.539062 30.726562 L 29.277344 30.558594 L 29.71875 30.84375 L 30.238281 30.902344 L 29.71875 30.84375 L 30.160156 31.125 C 30.167969 31.113281 30.226562 31.015625 30.320312 30.835938 L 30.332031 30.8125 C 30.371094 30.722656 30.425781 30.601562 30.480469 30.449219 C 30.535156 30.300781 30.59375 30.125 30.648438 29.921875 L 30.144531 29.789062 L 30.644531 29.941406 C 30.761719 29.535156 30.847656 29.054688 30.914062 28.496094 C 30.960938 28.050781 30.996094 27.554688 30.996094 27.019531 C 30.996094 26.886719 30.992188 26.75 30.988281 26.613281 L 30.988281 26.617188 C 30.980469 26.28125 30.96875 25.921875 30.929688 25.546875 L 30.410156 25.601562 L 30.929688 25.5625 C 30.902344 25.1875 30.855469 24.816406 30.800781 24.4375 C 30.691406 23.671875 30.53125 22.890625 30.335938 22.101562 L 30.335938 22.097656 C 30.234375 21.699219 30.121094 21.3125 30.007812 20.921875 L 30.007812 20.914062 C 29.882812 20.507812 29.746094 20.125 29.621094 19.742188 L 29.617188 19.726562 C 29.335938 18.960938 29.03125 18.171875 28.703125 17.429688 L 28.226562 17.652344 L 28.703125 17.4375 C 28.378906 16.683594 28.03125 15.96875 27.695312 15.28125 L 27.691406 15.277344 C 27.355469 14.597656 27.023438 13.933594 26.699219 13.289062 C 26.066406 12.023438 25.523438 10.855469 25.179688 9.820312 L 25.179688 9.824219 C 25.011719 9.296875 24.871094 8.8125 24.800781 8.382812 C 24.722656 7.933594 24.675781 7.527344 24.664062 7.207031 L 24.144531 7.226562 L 24.664062 7.214844 C 24.660156 7.046875 24.65625 6.898438 24.65625 6.769531 C 24.65625 6.625 24.660156 6.503906 24.664062 6.421875 L 24.667969 6.414062 C 24.675781 6.214844 24.683594 6.109375 24.683594 6.109375 C 24.695312 5.851562 24.523438 5.621094 24.277344 5.5625 C 24.027344 5.507812 23.773438 5.640625 23.679688 5.882812 C 23.679688 5.882812 23.640625 5.976562 23.570312 6.15625 L 23.566406 6.171875 C 23.496094 6.359375 23.394531 6.660156 23.308594 7.058594 L 23.304688 7.070312 C 23.230469 7.449219 23.144531 7.949219 23.132812 8.542969 L 23.132812 8.539062 C 23.132812 8.628906 23.128906 8.722656 23.128906 8.816406 C 23.128906 9.316406 23.160156 9.871094 23.25 10.453125 L 23.765625 10.375 L 23.25 10.449219 C 23.347656 11.140625 23.511719 11.851562 23.71875 12.570312 C 23.921875 13.292969 24.175781 14.015625 24.445312 14.738281 C 24.722656 15.460938 25.019531 16.179688 25.320312 16.894531 L 25.320312 16.898438 C 25.621094 17.601562 25.925781 18.316406 26.230469 19.03125 C 26.53125 19.742188 26.808594 20.4375 27.082031 21.140625 C 27.351562 21.832031 27.601562 22.527344 27.835938 23.203125 L 27.835938 23.195312 C 28.0625 23.875 28.273438 24.53125 28.449219 25.15625 L 28.949219 25.011719 L 28.445312 25.148438 C 28.535156 25.488281 28.628906 25.792969 28.6875 26.066406 L 28.691406 26.082031 C 28.730469 26.234375 28.765625 26.382812 28.804688 26.53125 L 29.308594 26.402344 L 28.800781 26.515625 C 28.832031 26.664062 28.863281 26.808594 28.894531 26.953125 C 29.011719 27.511719 29.097656 28.035156 29.160156 28.507812 L 29.679688 28.433594 L 29.160156 28.488281 C 29.183594 28.738281 29.214844 28.960938 29.21875 29.136719 L 29.222656 29.167969 C 29.242188 29.363281 29.25 29.546875 29.253906 29.710938 C 29.253906 29.785156 29.253906 29.855469 29.253906 29.917969 C 29.253906 30.164062 29.246094 30.359375 29.234375 30.496094 L 29.753906 30.539062 L 29.238281 30.476562 C 29.214844 30.675781 29.203125 30.78125 29.203125 30.78125 C 29.175781 31.03125 29.316406 31.261719 29.546875 31.34375 C 29.777344 31.425781 30.03125 31.335938 30.160156 31.125 L 29.71875 30.84375 " fill-opacity="1" fill-rule="nonzero"/><path fill="#6f4323" d="M 18.921875 17.984375 C 25.722656 19.511719 32.675781 24.472656 29.097656 28.074219 C 30.355469 30.949219 24.558594 35.394531 14.742188 33.464844 C 4.75 31.5 0.957031 25.367188 4.472656 22.535156 C 2.648438 18.988281 12.125 16.453125 18.921875 17.984375 " fill-opacity="1" fill-rule="nonzero"/><path fill="#231f20" d="M 18.921875 17.984375 L 18.917969 18.011719 C 21.675781 18.632812 24.460938 19.816406 26.550781 21.246094 C 27.597656 21.960938 28.46875 22.738281 29.082031 23.535156 C 29.691406 24.328125 30.039062 25.140625 30.039062 25.933594 C 30.039062 26.664062 29.746094 27.382812 29.078125 28.054688 C 29.070312 28.0625 29.066406 28.074219 29.070312 28.085938 C 29.183594 28.34375 29.238281 28.613281 29.238281 28.890625 C 29.238281 30.019531 28.320312 31.273438 26.625 32.246094 C 24.929688 33.21875 22.457031 33.90625 19.367188 33.90625 C 17.953125 33.90625 16.40625 33.761719 14.746094 33.433594 C 10.980469 32.695312 8.09375 31.359375 6.15625 29.835938 C 4.214844 28.3125 3.21875 26.597656 3.21875 25.105469 C 3.21875 24.132812 3.636719 23.25 4.492188 22.5625 C 4.503906 22.550781 4.507812 22.535156 4.5 22.523438 C 4.347656 22.222656 4.273438 21.933594 4.273438 21.652344 C 4.273438 21.070312 4.585938 20.523438 5.144531 20.027344 C 6.8125 18.539062 10.660156 17.558594 14.554688 17.558594 C 16.039062 17.558594 17.535156 17.699219 18.917969 18.011719 L 18.921875 17.984375 L 18.929688 17.953125 C 17.542969 17.640625 16.042969 17.496094 14.554688 17.496094 C 11.953125 17.496094 9.371094 17.933594 7.441406 18.667969 C 6.472656 19.035156 5.667969 19.476562 5.105469 19.980469 C 4.539062 20.480469 4.214844 21.046875 4.214844 21.652344 C 4.214844 21.945312 4.289062 22.246094 4.445312 22.550781 L 4.472656 22.535156 L 4.453125 22.511719 C 3.585938 23.210938 3.15625 24.113281 3.160156 25.105469 C 3.160156 26.628906 4.167969 28.351562 6.117188 29.882812 C 8.066406 31.414062 10.960938 32.753906 14.734375 33.496094 C 16.398438 33.820312 17.949219 33.964844 19.367188 33.964844 C 22.46875 33.964844 24.949219 33.277344 26.65625 32.300781 C 28.359375 31.320312 29.296875 30.054688 29.300781 28.890625 C 29.300781 28.605469 29.242188 28.328125 29.125 28.0625 L 29.097656 28.074219 L 29.121094 28.097656 C 29.796875 27.417969 30.101562 26.683594 30.101562 25.933594 C 30.101562 25.125 29.746094 24.296875 29.128906 23.496094 C 27.28125 21.089844 23.078125 18.886719 18.929688 17.953125 L 18.921875 17.984375 " fill-opacity="1" fill-rule="nonzero"/><path fill="#351f17" d="M 27.8125 27.761719 C 27.8125 27.761719 27.742188 27.710938 27.609375 27.613281 C 27.472656 27.523438 27.269531 27.402344 27 27.269531 C 26.867188 27.199219 26.714844 27.132812 26.546875 27.066406 C 26.382812 26.992188 26.195312 26.925781 26.003906 26.855469 C 25.605469 26.722656 25.15625 26.585938 24.65625 26.46875 C 24.53125 26.4375 24.40625 26.40625 24.273438 26.375 C 24.144531 26.351562 24.007812 26.324219 23.875 26.296875 C 23.605469 26.234375 23.316406 26.199219 23.027344 26.144531 C 22.445312 26.050781 21.828125 25.972656 21.183594 25.90625 C 20.539062 25.84375 19.867188 25.789062 19.183594 25.753906 C 18.496094 25.714844 17.808594 25.6875 17.09375 25.667969 C 16.382812 25.652344 15.671875 25.636719 14.96875 25.621094 C 14.257812 25.605469 13.550781 25.582031 12.863281 25.539062 C 12.171875 25.492188 11.496094 25.429688 10.859375 25.328125 C 10.21875 25.226562 9.609375 25.09375 9.066406 24.917969 C 8.523438 24.746094 8.046875 24.523438 7.652344 24.300781 C 7.253906 24.078125 6.957031 23.824219 6.726562 23.617188 C 6.5 23.402344 6.355469 23.214844 6.261719 23.085938 C 6.171875 22.957031 6.125 22.886719 6.125 22.886719 C 6.125 22.886719 6.199219 22.933594 6.339844 23.019531 C 6.476562 23.109375 6.691406 23.222656 6.960938 23.351562 C 7.230469 23.480469 7.578125 23.605469 7.972656 23.71875 C 8.367188 23.832031 8.832031 23.90625 9.335938 23.964844 C 10.351562 24.074219 11.5625 24.058594 12.886719 24.003906 C 13.558594 23.976562 14.253906 23.945312 14.957031 23.917969 C 15.667969 23.898438 16.398438 23.875 17.140625 23.882812 C 17.867188 23.886719 18.625 23.929688 19.355469 23.988281 C 19.71875 24.027344 20.082031 24.058594 20.441406 24.109375 C 20.796875 24.164062 21.152344 24.21875 21.496094 24.285156 C 22.1875 24.421875 22.847656 24.585938 23.460938 24.785156 C 23.769531 24.882812 24.0625 24.988281 24.339844 25.101562 C 24.625 25.207031 24.886719 25.335938 25.136719 25.457031 C 25.640625 25.699219 26.074219 25.96875 26.433594 26.230469 C 26.792969 26.492188 27.082031 26.746094 27.285156 26.980469 C 27.496094 27.203125 27.625 27.410156 27.710938 27.546875 C 27.78125 27.6875 27.8125 27.761719 27.8125 27.761719 " fill-opacity="1" fill-rule="nonzero"/><path fill="#231f20" d="M 27.8125 27.761719 L 27.832031 27.738281 C 27.832031 27.738281 27.757812 27.6875 27.625 27.589844 L 27.625 27.585938 C 27.488281 27.496094 27.285156 27.375 27.011719 27.242188 C 26.878906 27.171875 26.726562 27.101562 26.554688 27.039062 L 26.546875 27.066406 L 26.558594 27.039062 C 26.394531 26.960938 26.207031 26.898438 26.011719 26.824219 C 25.613281 26.691406 25.164062 26.554688 24.664062 26.4375 C 24.539062 26.410156 24.410156 26.378906 24.28125 26.347656 C 24.148438 26.320312 24.015625 26.292969 23.878906 26.265625 L 23.875 26.296875 L 23.878906 26.265625 C 23.609375 26.203125 23.320312 26.167969 23.035156 26.113281 C 22.449219 26.019531 21.828125 25.941406 21.1875 25.875 C 20.539062 25.8125 19.871094 25.757812 19.1875 25.722656 C 18.496094 25.683594 17.8125 25.65625 17.097656 25.636719 C 16.382812 25.621094 15.671875 25.605469 14.96875 25.589844 C 14.257812 25.574219 13.554688 25.550781 12.863281 25.507812 C 12.175781 25.460938 11.5 25.398438 10.863281 25.296875 C 10.222656 25.195312 9.617188 25.066406 9.078125 24.886719 L 9.074219 24.886719 C 8.53125 24.71875 8.058594 24.496094 7.664062 24.273438 C 7.269531 24.050781 6.976562 23.800781 6.746094 23.59375 L 6.726562 23.617188 L 6.746094 23.59375 C 6.523438 23.378906 6.378906 23.195312 6.285156 23.066406 L 6.261719 23.085938 L 6.285156 23.070312 C 6.195312 22.9375 6.148438 22.867188 6.148438 22.867188 L 6.125 22.886719 L 6.109375 22.914062 C 6.109375 22.914062 6.183594 22.957031 6.324219 23.046875 L 6.339844 23.019531 L 6.324219 23.046875 C 6.460938 23.136719 6.679688 23.25 6.949219 23.378906 C 7.222656 23.511719 7.566406 23.632812 7.964844 23.746094 C 8.363281 23.863281 8.828125 23.9375 9.332031 23.996094 C 9.871094 24.054688 10.464844 24.078125 11.101562 24.078125 C 11.667969 24.078125 12.265625 24.058594 12.890625 24.035156 C 13.558594 24.003906 14.253906 23.976562 14.957031 23.949219 C 15.542969 23.929688 16.136719 23.914062 16.742188 23.914062 C 16.875 23.914062 17.007812 23.914062 17.136719 23.914062 L 17.140625 23.914062 C 17.867188 23.917969 18.621094 23.960938 19.351562 24.015625 L 19.355469 23.988281 L 19.351562 24.015625 C 19.71875 24.058594 20.078125 24.089844 20.4375 24.140625 L 20.441406 24.109375 L 20.4375 24.140625 C 20.792969 24.195312 21.144531 24.25 21.492188 24.316406 L 21.496094 24.285156 L 21.492188 24.316406 C 22.179688 24.453125 22.839844 24.613281 23.449219 24.816406 C 23.757812 24.914062 24.050781 25.015625 24.332031 25.132812 C 24.613281 25.238281 24.875 25.363281 25.125 25.484375 C 25.628906 25.722656 26.058594 25.996094 26.414062 26.253906 C 26.773438 26.515625 27.058594 26.769531 27.261719 27 C 27.472656 27.222656 27.601562 27.425781 27.683594 27.5625 L 27.710938 27.546875 L 27.683594 27.5625 C 27.71875 27.628906 27.746094 27.683594 27.761719 27.71875 C 27.769531 27.738281 27.777344 27.75 27.78125 27.761719 L 27.785156 27.773438 L 27.8125 27.761719 L 27.832031 27.738281 L 27.8125 27.761719 L 27.839844 27.75 C 27.839844 27.75 27.808594 27.671875 27.734375 27.53125 C 27.652344 27.394531 27.523438 27.183594 27.304688 26.957031 L 27.285156 26.980469 L 27.308594 26.960938 C 27.101562 26.722656 26.8125 26.46875 26.449219 26.203125 C 26.089844 25.941406 25.65625 25.671875 25.152344 25.429688 C 24.902344 25.304688 24.636719 25.179688 24.351562 25.074219 L 24.339844 25.101562 L 24.351562 25.074219 C 24.070312 24.957031 23.777344 24.855469 23.46875 24.757812 C 22.855469 24.554688 22.191406 24.394531 21.503906 24.253906 C 21.15625 24.1875 20.804688 24.136719 20.445312 24.078125 C 20.085938 24.03125 19.722656 24 19.359375 23.957031 L 19.355469 23.957031 C 18.625 23.898438 17.867188 23.855469 17.140625 23.855469 L 17.140625 23.882812 L 17.140625 23.855469 C 17.007812 23.851562 16.875 23.851562 16.742188 23.851562 C 16.136719 23.851562 15.542969 23.871094 14.957031 23.886719 C 14.25 23.917969 13.558594 23.945312 12.886719 23.972656 C 12.265625 23.996094 11.667969 24.015625 11.101562 24.015625 C 10.46875 24.015625 9.875 23.992188 9.339844 23.933594 C 8.835938 23.875 8.375 23.800781 7.980469 23.6875 C 7.585938 23.574219 7.242188 23.453125 6.972656 23.324219 L 6.960938 23.351562 L 6.972656 23.324219 C 6.707031 23.195312 6.492188 23.082031 6.355469 22.996094 L 6.355469 22.992188 C 6.214844 22.90625 6.140625 22.859375 6.140625 22.859375 C 6.128906 22.851562 6.113281 22.855469 6.101562 22.863281 C 6.09375 22.875 6.089844 22.890625 6.097656 22.902344 C 6.097656 22.902344 6.148438 22.972656 6.234375 23.105469 L 6.238281 23.105469 C 6.332031 23.234375 6.480469 23.421875 6.707031 23.636719 L 6.707031 23.640625 C 6.9375 23.847656 7.234375 24.101562 7.636719 24.324219 C 8.03125 24.550781 8.511719 24.777344 9.058594 24.945312 L 9.066406 24.917969 L 9.058594 24.945312 C 9.605469 25.125 10.210938 25.257812 10.851562 25.359375 C 11.496094 25.460938 12.167969 25.523438 12.859375 25.566406 C 13.550781 25.613281 14.257812 25.636719 14.96875 25.652344 C 15.667969 25.667969 16.382812 25.683594 17.09375 25.699219 C 17.808594 25.714844 18.496094 25.746094 19.183594 25.785156 C 19.867188 25.820312 20.535156 25.875 21.179688 25.9375 C 21.824219 26.003906 22.441406 26.078125 23.023438 26.175781 L 23.027344 26.144531 L 23.023438 26.175781 C 23.3125 26.226562 23.601562 26.265625 23.867188 26.328125 C 24.003906 26.355469 24.136719 26.378906 24.269531 26.40625 L 24.273438 26.375 L 24.269531 26.40625 C 24.398438 26.4375 24.523438 26.46875 24.648438 26.496094 C 25.148438 26.613281 25.597656 26.75 25.992188 26.882812 L 26.003906 26.855469 L 25.992188 26.882812 C 26.1875 26.957031 26.375 27.019531 26.53125 27.09375 L 26.535156 27.09375 C 26.703125 27.160156 26.855469 27.226562 26.988281 27.296875 C 27.257812 27.429688 27.457031 27.550781 27.59375 27.640625 L 27.609375 27.613281 L 27.589844 27.636719 C 27.722656 27.734375 27.796875 27.789062 27.796875 27.789062 C 27.808594 27.796875 27.820312 27.796875 27.832031 27.789062 C 27.84375 27.777344 27.847656 27.765625 27.839844 27.75 L 27.8125 27.761719 " fill-opacity="1" fill-rule="nonzero"/><path fill="#6f4323" d="M 33.984375 15.402344 C 35.726562 23.167969 34.652344 33.410156 30.03125 32.328125 C 28.175781 35.523438 21.855469 32.816406 19.105469 21.792969 C 16.308594 10.578125 19.777344 2.65625 23.722656 4.214844 C 25.890625 -0.00390625 32.242188 7.640625 33.984375 15.402344 " fill-opacity="1" fill-rule="nonzero"/><path fill="#231f20" d="M 33.984375 15.402344 L 33.953125 15.410156 C 34.472656 17.71875 34.742188 20.25 34.742188 22.636719 C 34.742188 25.25 34.417969 27.6875 33.746094 29.472656 C 33.414062 30.363281 32.992188 31.089844 32.480469 31.59375 C 31.972656 32.09375 31.378906 32.375 30.6875 32.375 C 30.480469 32.375 30.261719 32.347656 30.035156 32.296875 C 30.023438 32.292969 30.011719 32.300781 30.003906 32.308594 C 29.53125 33.125 28.769531 33.550781 27.847656 33.550781 C 26.515625 33.550781 24.847656 32.65625 23.257812 30.738281 C 21.667969 28.816406 20.15625 25.875 19.136719 21.785156 C 18.429688 18.953125 18.125 16.332031 18.125 14.019531 C 18.125 10.988281 18.648438 8.492188 19.492188 6.757812 C 19.910156 5.890625 20.410156 5.210938 20.960938 4.75 C 21.511719 4.292969 22.109375 4.046875 22.734375 4.046875 C 23.054688 4.046875 23.378906 4.113281 23.710938 4.242188 C 23.722656 4.246094 23.742188 4.242188 23.746094 4.226562 C 24.171875 3.402344 24.75 3.042969 25.421875 3.042969 C 26.109375 3.042969 26.902344 3.421875 27.722656 4.09375 C 30.1875 6.113281 32.90625 10.742188 33.953125 15.410156 L 34.011719 15.398438 C 33.3125 12.277344 31.867188 9.175781 30.25 6.851562 C 29.441406 5.691406 28.585938 4.726562 27.757812 4.046875 C 26.933594 3.371094 26.132812 2.980469 25.421875 2.980469 C 24.726562 2.980469 24.125 3.363281 23.695312 4.199219 L 23.722656 4.214844 L 23.730469 4.183594 C 23.394531 4.050781 23.0625 3.988281 22.734375 3.988281 C 22.09375 3.988281 21.480469 4.238281 20.921875 4.703125 C 19.25 6.105469 18.0625 9.464844 18.0625 14.019531 C 18.0625 16.335938 18.371094 18.964844 19.078125 21.800781 C 20.097656 25.898438 21.613281 28.847656 23.210938 30.777344 C 24.808594 32.703125 26.492188 33.609375 27.847656 33.609375 C 28.789062 33.613281 29.574219 33.171875 30.054688 32.339844 L 30.03125 32.328125 L 30.023438 32.355469 C 30.253906 32.410156 30.476562 32.4375 30.6875 32.4375 C 31.394531 32.4375 32.007812 32.148438 32.523438 31.636719 C 34.078125 30.101562 34.800781 26.5625 34.800781 22.636719 C 34.800781 20.246094 34.53125 17.710938 34.011719 15.398438 L 33.984375 15.402344 " fill-opacity="1" fill-rule="nonzero"/><path fill="#351f17" d="M 29.71875 30.84375 C 29.71875 30.84375 29.730469 30.738281 29.753906 30.539062 C 29.769531 30.34375 29.78125 30.0625 29.773438 29.703125 C 29.769531 29.523438 29.761719 29.328125 29.742188 29.117188 C 29.734375 28.90625 29.703125 28.675781 29.679688 28.433594 C 29.613281 27.953125 29.527344 27.414062 29.402344 26.839844 C 29.371094 26.699219 29.339844 26.550781 29.308594 26.402344 C 29.273438 26.253906 29.234375 26.101562 29.199219 25.949219 C 29.132812 25.644531 29.035156 25.332031 28.949219 25.011719 C 28.769531 24.371094 28.558594 23.707031 28.328125 23.023438 C 28.09375 22.34375 27.839844 21.644531 27.566406 20.945312 C 27.292969 20.238281 27.011719 19.539062 26.710938 18.820312 C 26.40625 18.105469 26.101562 17.390625 25.800781 16.6875 C 25.5 15.972656 25.203125 15.257812 24.933594 14.546875 C 24.664062 13.832031 24.417969 13.125 24.21875 12.421875 C 24.015625 11.722656 23.859375 11.03125 23.765625 10.375 C 23.664062 9.71875 23.644531 9.09375 23.65625 8.550781 C 23.664062 8.007812 23.746094 7.542969 23.816406 7.175781 C 23.898438 6.804688 23.992188 6.535156 24.054688 6.351562 C 24.125 6.175781 24.164062 6.082031 24.164062 6.082031 C 24.164062 6.082031 24.15625 6.1875 24.144531 6.386719 C 24.132812 6.582031 24.132812 6.871094 24.144531 7.226562 C 24.15625 7.582031 24.207031 8.007812 24.285156 8.476562 C 24.367188 8.945312 24.511719 9.453125 24.6875 9.992188 C 25.042969 11.070312 25.597656 12.253906 26.234375 13.53125 C 26.558594 14.175781 26.890625 14.839844 27.226562 15.515625 C 27.5625 16.207031 27.90625 16.910156 28.226562 17.652344 C 28.550781 18.375 28.851562 19.152344 29.128906 19.910156 C 29.253906 20.300781 29.390625 20.683594 29.507812 21.070312 C 29.621094 21.460938 29.730469 21.847656 29.832031 22.234375 C 30.023438 23.007812 30.179688 23.773438 30.285156 24.515625 C 30.339844 24.886719 30.382812 25.246094 30.410156 25.601562 C 30.445312 25.953125 30.460938 26.300781 30.46875 26.628906 C 30.488281 27.292969 30.453125 27.902344 30.394531 28.4375 C 30.332031 28.96875 30.25 29.425781 30.144531 29.789062 C 30.050781 30.148438 29.933594 30.417969 29.855469 30.59375 C 29.769531 30.761719 29.71875 30.84375 29.71875 30.84375 " fill-opacity="1" fill-rule="nonzero"/><path fill="#231f20" d="M 29.71875 30.84375 L 29.75 30.847656 C 29.75 30.847656 29.761719 30.738281 29.785156 30.542969 L 29.785156 30.539062 C 29.796875 30.386719 29.804688 30.175781 29.804688 29.917969 C 29.804688 29.851562 29.804688 29.777344 29.804688 29.703125 C 29.800781 29.523438 29.792969 29.328125 29.769531 29.113281 L 29.742188 29.117188 L 29.769531 29.113281 C 29.761719 28.902344 29.730469 28.671875 29.707031 28.429688 C 29.640625 27.945312 29.554688 27.410156 29.433594 26.835938 C 29.402344 26.691406 29.371094 26.542969 29.339844 26.394531 C 29.300781 26.246094 29.265625 26.097656 29.226562 25.941406 L 29.199219 25.949219 L 29.226562 25.945312 C 29.160156 25.636719 29.0625 25.324219 28.980469 25.003906 C 28.800781 24.363281 28.585938 23.695312 28.359375 23.015625 L 28.355469 23.015625 C 28.121094 22.335938 27.871094 21.636719 27.59375 20.933594 C 27.320312 20.226562 27.039062 19.527344 26.738281 18.808594 C 26.433594 18.09375 26.128906 17.378906 25.828125 16.675781 C 25.527344 15.960938 25.230469 15.25 24.960938 14.535156 C 24.695312 13.824219 24.445312 13.113281 24.246094 12.414062 C 24.046875 11.714844 23.886719 11.023438 23.796875 10.367188 C 23.710938 9.820312 23.683594 9.292969 23.683594 8.816406 C 23.683594 8.726562 23.683594 8.640625 23.683594 8.550781 C 23.695312 8.011719 23.773438 7.546875 23.847656 7.179688 L 23.816406 7.175781 L 23.847656 7.179688 C 23.925781 6.8125 24.019531 6.542969 24.082031 6.363281 L 24.054688 6.351562 L 24.082031 6.363281 C 24.152344 6.1875 24.191406 6.09375 24.191406 6.09375 L 24.164062 6.082031 L 24.132812 6.082031 C 24.132812 6.082031 24.125 6.1875 24.117188 6.382812 L 24.144531 6.386719 L 24.117188 6.382812 C 24.109375 6.488281 24.105469 6.617188 24.105469 6.769531 C 24.105469 6.90625 24.109375 7.058594 24.113281 7.226562 C 24.125 7.585938 24.175781 8.011719 24.257812 8.480469 C 24.335938 8.953125 24.480469 9.460938 24.65625 10 C 25.015625 11.082031 25.570312 12.269531 26.210938 13.542969 C 26.53125 14.1875 26.863281 14.855469 27.199219 15.53125 C 27.535156 16.21875 27.878906 16.925781 28.199219 17.664062 C 28.523438 18.386719 28.824219 19.164062 29.101562 19.921875 L 29.128906 19.910156 L 29.097656 19.921875 C 29.226562 20.3125 29.363281 20.691406 29.480469 21.078125 L 29.507812 21.070312 L 29.480469 21.078125 C 29.589844 21.46875 29.703125 21.855469 29.800781 22.238281 C 29.992188 23.015625 30.152344 23.777344 30.253906 24.519531 C 30.308594 24.890625 30.351562 25.25 30.378906 25.605469 C 30.417969 25.957031 30.429688 26.300781 30.4375 26.632812 C 30.441406 26.761719 30.445312 26.894531 30.445312 27.019531 C 30.445312 27.53125 30.410156 28.007812 30.363281 28.433594 C 30.304688 28.964844 30.21875 29.417969 30.113281 29.777344 L 30.113281 29.78125 C 30.023438 30.140625 29.90625 30.40625 29.828125 30.582031 L 29.855469 30.59375 L 29.828125 30.578125 C 29.785156 30.664062 29.753906 30.722656 29.730469 30.765625 C 29.71875 30.785156 29.710938 30.800781 29.703125 30.8125 C 29.699219 30.820312 29.695312 30.828125 29.695312 30.828125 L 29.71875 30.84375 L 29.75 30.847656 L 29.71875 30.84375 L 29.746094 30.859375 C 29.746094 30.859375 29.796875 30.773438 29.882812 30.605469 C 29.960938 30.429688 30.078125 30.160156 30.171875 29.796875 L 30.144531 29.789062 L 30.171875 29.796875 C 30.277344 29.433594 30.363281 28.976562 30.425781 28.4375 C 30.472656 28.011719 30.503906 27.535156 30.503906 27.019531 C 30.503906 26.890625 30.503906 26.761719 30.496094 26.628906 C 30.488281 26.296875 30.476562 25.953125 30.441406 25.597656 L 30.410156 25.601562 L 30.441406 25.601562 C 30.414062 25.242188 30.367188 24.882812 30.3125 24.507812 C 30.210938 23.765625 30.050781 23.003906 29.859375 22.226562 C 29.761719 21.835938 29.648438 21.453125 29.539062 21.0625 L 29.539062 21.058594 C 29.417969 20.671875 29.285156 20.292969 29.15625 19.902344 C 28.878906 19.140625 28.578125 18.363281 28.253906 17.640625 L 28.226562 17.652344 L 28.253906 17.640625 C 27.933594 16.898438 27.589844 16.191406 27.253906 15.503906 C 26.917969 14.824219 26.585938 14.160156 26.261719 13.515625 C 25.625 12.242188 25.070312 11.058594 24.714844 9.980469 C 24.539062 9.441406 24.394531 8.9375 24.316406 8.46875 C 24.234375 8.003906 24.183594 7.578125 24.171875 7.226562 L 24.144531 7.226562 L 24.171875 7.226562 C 24.167969 7.058594 24.167969 6.902344 24.167969 6.769531 C 24.167969 6.617188 24.167969 6.488281 24.175781 6.386719 C 24.1875 6.1875 24.191406 6.082031 24.191406 6.082031 C 24.191406 6.070312 24.183594 6.054688 24.167969 6.050781 C 24.15625 6.046875 24.140625 6.054688 24.132812 6.070312 C 24.132812 6.070312 24.097656 6.164062 24.027344 6.339844 L 24.027344 6.34375 C 23.960938 6.523438 23.867188 6.796875 23.789062 7.167969 C 23.714844 7.535156 23.632812 8.003906 23.625 8.550781 C 23.621094 8.636719 23.621094 8.726562 23.621094 8.816406 C 23.621094 9.292969 23.652344 9.824219 23.734375 10.378906 L 23.765625 10.375 L 23.734375 10.378906 C 23.828125 11.039062 23.988281 11.726562 24.191406 12.429688 C 24.386719 13.132812 24.636719 13.84375 24.90625 14.558594 C 25.175781 15.269531 25.472656 15.984375 25.773438 16.699219 C 26.074219 17.402344 26.378906 18.117188 26.683594 18.832031 C 26.984375 19.550781 27.265625 20.25 27.539062 20.957031 C 27.8125 21.65625 28.066406 22.355469 28.300781 23.035156 C 28.53125 23.714844 28.742188 24.382812 28.921875 25.019531 L 28.949219 25.011719 L 28.921875 25.019531 C 29.003906 25.34375 29.101562 25.652344 29.167969 25.957031 C 29.207031 26.109375 29.246094 26.261719 29.28125 26.410156 L 29.308594 26.402344 L 29.28125 26.410156 C 29.3125 26.558594 29.34375 26.703125 29.375 26.847656 C 29.496094 27.421875 29.582031 27.957031 29.648438 28.4375 L 29.679688 28.433594 L 29.648438 28.4375 C 29.671875 28.679688 29.703125 28.910156 29.710938 29.117188 C 29.730469 29.332031 29.742188 29.527344 29.742188 29.703125 C 29.746094 29.777344 29.746094 29.851562 29.746094 29.917969 C 29.746094 30.175781 29.738281 30.382812 29.726562 30.535156 L 29.753906 30.539062 L 29.726562 30.535156 C 29.703125 30.734375 29.691406 30.839844 29.691406 30.839844 C 29.6875 30.855469 29.695312 30.867188 29.710938 30.871094 C 29.722656 30.875 29.738281 30.871094 29.746094 30.859375 L 29.71875 30.84375 " fill-opacity="1" fill-rule="nonzero"/></svg>