<svg xmlns="http://www.w3.org/2000/svg" xmlns:xlink="http://www.w3.org/1999/xlink" width="50" zoomAndPan="magnify" viewBox="0 0 37.5 37.499999" height="50" preserveAspectRatio="xMidYMid meet" version="1.0"><defs><clipPath id="eafc87c764"><path d="M 1.511719 2.066406 L 35.558594 2.066406 L 35.558594 34.628906 L 1.511719 34.628906 Z M 1.511719 2.066406 " clip-rule="nonzero"/></clipPath><clipPath id="2adf62b345"><path d="M 2 2.066406 L 27 2.066406 L 27 33 L 2 33 Z M 2 2.066406 " clip-rule="nonzero"/></clipPath></defs><g clip-path="url(#eafc87c764)"><path fill="#000000" d="M 35.289062 17.511719 C 34.089844 16.910156 32.847656 16.535156 31.523438 16.367188 C 32.070312 14.28125 32.285156 12.105469 33.175781 10.09375 C 33.261719 9.902344 33.167969 9.613281 32.910156 9.632812 C 31.027344 9.761719 29.144531 9.886719 27.257812 10.015625 C 27.269531 9.847656 27.273438 9.679688 27.28125 9.511719 C 27.394531 7.15625 27.507812 4.800781 27.621094 2.445312 C 27.628906 2.3125 27.558594 2.222656 27.464844 2.179688 C 27.394531 2.101562 27.292969 2.058594 27.164062 2.09375 C 20.28125 3.945312 12.90625 5.96875 7.789062 11.199219 C 3.253906 15.835938 1.566406 22.699219 3.332031 28.890625 C 3.34375 28.925781 3.355469 28.953125 3.375 28.976562 C 3.242188 29.199219 3.179688 29.457031 3.199219 29.722656 C 2.761719 29.914062 2.421875 30.277344 2.304688 30.753906 C 2.277344 30.859375 2.296875 31 2.257812 31.101562 C 2.191406 31.273438 2.097656 31.273438 1.96875 31.382812 C 1.804688 31.523438 1.71875 31.714844 1.761719 31.917969 C 1.757812 31.953125 1.753906 31.988281 1.753906 32.019531 C 1.738281 32.128906 1.742188 32.238281 1.769531 32.34375 C 1.808594 32.496094 1.894531 32.621094 1.996094 32.710938 C 2.191406 32.941406 2.492188 33.105469 2.847656 33.15625 C 2.992188 33.175781 3.136719 33.167969 3.277344 33.144531 C 3.679688 33.605469 4.335938 34.164062 4.910156 33.953125 C 5.28125 33.816406 5.558594 33.347656 5.792969 33.058594 C 6.046875 32.75 6.285156 32.433594 6.515625 32.109375 C 6.519531 32.113281 6.523438 32.117188 6.527344 32.117188 C 8.246094 32.773438 9.96875 33.425781 11.6875 34.089844 C 13.070312 34.625 14.257812 34.570312 15.738281 34.445312 C 16.515625 34.378906 17.273438 34.144531 18.042969 34.019531 C 18.828125 33.894531 19.632812 33.835938 20.402344 33.621094 C 21.867188 33.207031 23.164062 32.367188 24.433594 31.558594 C 25.5625 30.835938 26.707031 30.078125 27.59375 29.058594 C 28.648438 27.839844 29.265625 26.328125 30.3125 25.097656 C 31.21875 24.03125 32.039062 23.011719 32.734375 21.796875 C 33.507812 20.449219 34.214844 19.089844 35.347656 17.992188 C 35.484375 17.859375 35.464844 17.601562 35.289062 17.511719 " fill-opacity="1" fill-rule="nonzero"/><path fill="#000000" d="M 6.148438 31.570312 C 6.058594 31.507812 5.964844 31.457031 5.859375 31.421875 C 5.210938 31.222656 4.816406 32.242188 4.328125 32.628906 C 4.195312 32.734375 4.050781 32.832031 3.894531 32.914062 C 4.011719 33.039062 4.144531 33.148438 4.292969 33.210938 C 4.699219 33.390625 4.8125 33.265625 5.074219 32.960938 C 5.457031 32.519531 5.8125 32.050781 6.148438 31.570312 Z M 26.703125 8.671875 C 26.796875 6.707031 26.890625 4.742188 26.984375 2.777344 C 26.488281 2.910156 25.988281 3.046875 25.488281 3.183594 C 25.199219 3.410156 24.96875 3.644531 24.804688 3.839844 C 24.601562 4.085938 24.484375 4.257812 24.4375 4.238281 C 24.398438 4.21875 24.433594 4.007812 24.601562 3.703125 C 24.660156 3.597656 24.738281 3.480469 24.828125 3.367188 C 24.125 3.5625 23.417969 3.761719 22.714844 3.972656 C 22.613281 4.042969 22.511719 4.121094 22.421875 4.210938 C 22.007812 4.625 21.722656 5.109375 21.46875 5.429688 C 21.226562 5.761719 21.027344 5.933594 20.992188 5.90625 C 20.953125 5.875 21.074219 5.65625 21.261719 5.300781 C 21.425781 5.007812 21.632812 4.597656 21.96875 4.199219 C 21.050781 4.480469 20.136719 4.777344 19.238281 5.101562 C 18.855469 5.285156 18.445312 5.511719 18.132812 5.882812 C 18.007812 6.027344 17.917969 6.183594 17.859375 6.347656 C 17.804688 6.507812 17.792969 6.667969 17.777344 6.859375 C 17.769531 7.042969 17.703125 7.261719 17.589844 7.40625 C 17.484375 7.550781 17.367188 7.652344 17.265625 7.746094 C 17.0625 7.925781 16.914062 8.066406 16.84375 8.1875 C 16.773438 8.304688 16.757812 8.390625 16.730469 8.390625 C 16.710938 8.390625 16.675781 8.300781 16.71875 8.136719 C 16.761719 7.96875 16.910156 7.773438 17.089844 7.574219 C 17.179688 7.472656 17.277344 7.367188 17.347656 7.246094 C 17.421875 7.125 17.453125 7.007812 17.457031 6.835938 C 17.464844 6.671875 17.464844 6.449219 17.535156 6.242188 C 17.605469 6.035156 17.71875 5.835938 17.863281 5.664062 C 17.886719 5.632812 17.914062 5.613281 17.9375 5.585938 C 17.273438 5.847656 16.613281 6.121094 15.964844 6.414062 C 15.871094 6.519531 15.777344 6.628906 15.699219 6.757812 C 15.585938 6.929688 15.492188 7.128906 15.4375 7.34375 C 15.378906 7.554688 15.382812 7.78125 15.40625 8.035156 C 15.425781 8.289062 15.453125 8.558594 15.390625 8.832031 C 15.335938 9.097656 15.21875 9.3125 15.148438 9.507812 C 15.007812 9.902344 14.984375 10.292969 15.011719 10.613281 C 15.070312 11.257812 15.304688 11.625 15.253906 11.648438 C 15.234375 11.664062 15.15625 11.585938 15.050781 11.421875 C 14.953125 11.253906 14.828125 10.992188 14.769531 10.644531 C 14.703125 10.296875 14.703125 9.863281 14.847656 9.40625 C 14.917969 9.183594 15.019531 8.972656 15.058594 8.761719 C 15.097656 8.554688 15.078125 8.320312 15.058594 8.0625 C 15.035156 7.804688 15.03125 7.515625 15.105469 7.257812 C 15.160156 7.054688 15.25 6.867188 15.351562 6.703125 C 13.324219 7.667969 11.40625 8.828125 9.683594 10.28125 C 9.492188 10.460938 9.265625 10.65625 9.03125 10.875 C 8.765625 11.125 8.492188 11.40625 8.296875 11.753906 C 7.992188 12.289062 8.011719 12.921875 8.285156 13.277344 L 8.382812 13.40625 L 8.246094 13.484375 C 7.933594 13.65625 7.75 13.914062 7.652344 14.101562 C 7.558594 14.296875 7.527344 14.421875 7.496094 14.414062 C 7.46875 14.414062 7.441406 14.277344 7.503906 14.046875 C 7.558594 13.847656 7.691406 13.566406 7.976562 13.332031 C 7.839844 13.128906 7.75 12.867188 7.742188 12.589844 C 7.738281 12.433594 7.753906 12.269531 7.789062 12.105469 C 5.316406 14.859375 3.796875 18.316406 3.382812 21.921875 C 3.421875 22.125 3.488281 22.328125 3.582031 22.527344 C 3.804688 23.007812 4.195312 23.367188 4.613281 23.496094 L 4.785156 23.550781 L 4.714844 23.707031 C 4.460938 24.28125 4.507812 24.847656 4.597656 25.214844 C 4.6875 25.589844 4.808594 25.789062 4.773438 25.808594 C 4.753906 25.828125 4.570312 25.660156 4.410156 25.269531 C 4.273438 24.921875 4.179688 24.359375 4.367188 23.746094 C 3.929688 23.578125 3.539062 23.214844 3.308594 22.753906 C 3.175781 24.6875 3.363281 26.648438 3.886719 28.558594 C 3.910156 28.558594 3.933594 28.5625 3.957031 28.566406 C 4.050781 28.507812 4.152344 28.453125 4.265625 28.410156 C 4.328125 28.386719 4.398438 28.363281 4.417969 28.355469 C 4.421875 28.351562 4.421875 28.351562 4.421875 28.351562 C 4.421875 28.351562 4.421875 28.347656 4.421875 28.339844 C 4.433594 28.300781 4.378906 28.15625 4.355469 28.03125 C 4.332031 27.902344 4.320312 27.777344 4.316406 27.660156 C 4.316406 27.421875 4.359375 27.210938 4.417969 27.042969 C 4.53125 26.707031 4.695312 26.546875 4.730469 26.570312 C 4.777344 26.597656 4.699219 26.789062 4.65625 27.101562 C 4.632812 27.257812 4.621094 27.441406 4.640625 27.644531 C 4.648438 27.746094 4.664062 27.855469 4.6875 27.960938 C 4.703125 28.015625 4.71875 28.0625 4.734375 28.125 C 4.753906 28.1875 4.777344 28.261719 4.773438 28.371094 C 4.765625 28.421875 4.75 28.488281 4.710938 28.542969 C 4.675781 28.59375 4.621094 28.636719 4.578125 28.660156 C 4.484375 28.703125 4.433594 28.707031 4.382812 28.726562 C 4.3125 28.75 4.25 28.777344 4.183594 28.808594 C 4.203125 28.910156 4.183594 29.015625 4.101562 29.078125 C 3.894531 29.238281 3.769531 29.476562 3.820312 29.742188 C 3.839844 29.847656 3.8125 29.929688 3.761719 29.996094 C 3.746094 30.101562 3.679688 30.199219 3.546875 30.242188 C 3.128906 30.375 2.96875 30.667969 2.894531 31.042969 C 3.046875 31.007812 3.199219 30.992188 3.332031 30.972656 C 3.484375 30.957031 3.683594 30.929688 3.683594 30.914062 C 3.707031 30.9375 3.707031 30.714844 3.746094 30.597656 C 3.820312 30.335938 3.972656 30.164062 4.082031 30.078125 C 4.199219 29.984375 4.28125 29.964844 4.292969 29.984375 C 4.308594 30.003906 4.257812 30.0625 4.183594 30.167969 C 4.113281 30.273438 4.019531 30.4375 3.988281 30.652344 C 3.980469 30.703125 3.976562 30.757812 3.976562 30.816406 C 3.976562 30.847656 3.980469 30.886719 3.972656 30.9375 C 3.96875 30.984375 3.949219 31.050781 3.902344 31.101562 C 3.808594 31.207031 3.695312 31.222656 3.617188 31.242188 C 3.542969 31.257812 3.464844 31.273438 3.382812 31.289062 C 3.199219 31.320312 3.003906 31.359375 2.820312 31.414062 C 2.796875 31.480469 2.761719 31.546875 2.710938 31.605469 C 2.699219 31.621094 2.511719 31.765625 2.425781 31.816406 C 2.421875 31.828125 2.417969 31.84375 2.410156 31.859375 C 2.640625 32.273438 2.890625 32.492188 3.164062 32.511719 C 3.246094 32.460938 3.351562 32.441406 3.449219 32.46875 C 3.542969 32.433594 3.640625 32.378906 3.738281 32.300781 C 3.964844 32.148438 4.171875 31.964844 4.347656 31.753906 C 4.546875 31.519531 4.683594 31.144531 4.917969 30.933594 C 5.273438 30.617188 5.640625 30.644531 6.070312 30.832031 C 6.347656 30.945312 6.558594 31.15625 6.816406 31.304688 C 7.25 31.566406 7.71875 31.640625 8.207031 31.652344 C 7.890625 31.503906 7.628906 31.324219 7.433594 31.15625 C 7.054688 30.828125 6.902344 30.546875 6.933594 30.523438 C 6.976562 30.488281 7.191406 30.703125 7.582031 30.960938 C 7.96875 31.222656 8.554688 31.507812 9.246094 31.609375 C 10.09375 31.527344 10.933594 31.328125 11.753906 31.125 C 11.769531 31.121094 11.785156 31.121094 11.796875 31.117188 C 11.496094 31.046875 11.21875 30.917969 10.980469 30.746094 C 10.769531 30.582031 10.601562 30.375 10.488281 30.15625 C 9.964844 30.3125 9.496094 30.292969 9.179688 30.234375 C 8.832031 30.164062 8.660156 30.0625 8.667969 30.039062 C 8.675781 30.003906 8.871094 30.042969 9.203125 30.054688 C 9.53125 30.066406 10.007812 30.039062 10.515625 29.832031 L 10.644531 29.78125 L 10.710938 29.917969 C 10.808594 30.125 10.96875 30.320312 11.183594 30.480469 C 11.402344 30.628906 11.667969 30.746094 11.953125 30.800781 C 12.421875 30.894531 12.875 30.820312 13.265625 30.667969 C 13.65625 30.515625 13.980469 30.304688 14.238281 30.113281 C 14.757812 29.714844 15.042969 29.414062 15.085938 29.449219 C 15.113281 29.476562 14.898438 29.832031 14.398438 30.300781 C 14.316406 30.371094 14.226562 30.445312 14.128906 30.519531 C 15.230469 30.214844 16.324219 29.851562 17.339844 29.367188 C 18.179688 28.960938 18.925781 28.445312 19.597656 27.847656 C 19.410156 27.953125 19.222656 28.046875 19.027344 28.121094 C 18.699219 28.242188 18.347656 28.300781 18.011719 28.265625 C 17.847656 28.246094 17.683594 28.210938 17.542969 28.152344 C 17.40625 28.101562 17.285156 28.054688 17.183594 28.050781 C 16.984375 28.035156 16.777344 28.203125 16.546875 28.296875 C 16.085938 28.492188 15.675781 28.464844 15.414062 28.410156 C 15.152344 28.351562 15.027344 28.265625 15.035156 28.246094 C 15.042969 28.222656 15.183594 28.261719 15.433594 28.277344 C 15.679688 28.289062 16.054688 28.273438 16.441406 28.078125 C 16.539062 28.03125 16.632812 27.96875 16.75 27.898438 C 16.863281 27.835938 17.015625 27.761719 17.191406 27.765625 C 17.359375 27.769531 17.511719 27.824219 17.644531 27.867188 C 17.773438 27.914062 17.902344 27.9375 18.042969 27.953125 C 18.601562 27.996094 19.210938 27.71875 19.769531 27.332031 C 20.195312 27.019531 20.625 26.699219 20.78125 26.300781 C 20.945312 25.925781 20.75 25.445312 20.4375 25.382812 L 20.058594 25.308594 L 20.394531 25.125 C 20.953125 24.816406 21.359375 24.46875 21.628906 24.214844 C 21.898438 23.960938 22.039062 23.800781 22.066406 23.816406 C 22.089844 23.835938 21.992188 24.027344 21.75 24.324219 C 21.539062 24.582031 21.21875 24.910156 20.765625 25.21875 C 20.90625 25.316406 21.015625 25.457031 21.074219 25.609375 C 21.140625 25.765625 21.167969 25.941406 21.15625 26.117188 C 21.265625 25.96875 21.378906 25.816406 21.484375 25.660156 C 22.464844 24.214844 23.242188 22.644531 24.023438 21.089844 C 24.382812 20.378906 24.726562 19.664062 25.039062 18.929688 C 24.988281 18.984375 24.929688 19.035156 24.863281 19.085938 C 24.648438 19.253906 24.351562 19.382812 24.015625 19.402344 C 23.910156 19.757812 23.6875 20.101562 23.367188 20.359375 C 23.019531 20.648438 22.570312 20.789062 22.167969 20.789062 C 21.796875 20.796875 21.457031 20.695312 21.191406 20.550781 C 20.859375 20.777344 20.523438 20.835938 20.296875 20.835938 C 20.050781 20.832031 19.917969 20.777344 19.925781 20.75 C 19.925781 20.722656 20.0625 20.726562 20.28125 20.683594 C 20.5 20.640625 20.816406 20.539062 21.09375 20.289062 L 21.164062 20.226562 L 21.25 20.273438 C 21.5 20.398438 21.816406 20.484375 22.15625 20.464844 C 22.496094 20.449219 22.855469 20.332031 23.148438 20.09375 C 23.445312 19.851562 23.644531 19.527344 23.730469 19.207031 L 23.765625 19.078125 L 23.898438 19.082031 C 24.199219 19.101562 24.484375 19.003906 24.703125 18.859375 C 24.925781 18.71875 25.078125 18.535156 25.183594 18.375 C 25.390625 18.042969 25.390625 17.789062 25.433594 17.789062 C 25.445312 17.789062 25.457031 17.8125 25.464844 17.855469 C 25.765625 17.050781 26.011719 16.230469 26.175781 15.378906 C 26.183594 15.320312 26.195312 15.265625 26.203125 15.207031 C 26.03125 15.367188 25.835938 15.503906 25.636719 15.632812 C 25.441406 15.75 25.214844 15.859375 24.964844 15.863281 C 24.792969 15.867188 24.613281 15.816406 24.472656 15.71875 C 24.203125 16.089844 23.886719 16.328125 23.640625 16.464844 C 23.359375 16.621094 23.175781 16.660156 23.160156 16.632812 C 23.144531 16.597656 23.296875 16.5 23.53125 16.308594 C 23.761719 16.121094 24.070312 15.824219 24.304688 15.394531 L 24.421875 15.1875 L 24.574219 15.382812 C 24.648438 15.476562 24.792969 15.535156 24.953125 15.527344 C 25.109375 15.523438 25.28125 15.449219 25.453125 15.34375 C 25.78125 15.128906 26.09375 14.90625 26.253906 14.644531 C 26.277344 14.609375 26.300781 14.570312 26.316406 14.53125 C 26.339844 14.371094 26.359375 14.210938 26.378906 14.050781 C 26.371094 13.988281 26.355469 13.925781 26.339844 13.863281 C 26.265625 13.628906 26.164062 13.441406 26.101562 13.304688 C 26.035156 13.167969 26.007812 13.089844 26.027344 13.078125 C 26.046875 13.0625 26.113281 13.117188 26.214844 13.230469 C 26.277344 13.304688 26.355469 13.40625 26.433594 13.53125 C 26.566406 12.265625 26.605469 10.980469 26.65625 9.710938 C 26.628906 9.769531 26.601562 9.824219 26.574219 9.886719 C 26.464844 10.097656 26.320312 10.320312 26.074219 10.457031 C 25.957031 10.519531 25.824219 10.554688 25.691406 10.546875 C 25.617188 10.546875 25.542969 10.535156 25.476562 10.507812 C 25.253906 10.910156 24.957031 11.175781 24.722656 11.320312 C 24.457031 11.484375 24.277344 11.519531 24.265625 11.492188 C 24.246094 11.457031 24.394531 11.367188 24.613281 11.171875 C 24.820312 10.980469 25.097656 10.667969 25.265625 10.230469 L 25.339844 10.039062 L 25.511719 10.171875 C 25.601562 10.242188 25.773438 10.242188 25.914062 10.160156 C 26.050781 10.082031 26.167969 9.917969 26.265625 9.726562 C 26.445312 9.367188 26.589844 9.007812 26.703125 8.671875 Z M 32.441406 10.277344 C 30.703125 10.394531 28.96875 10.511719 27.234375 10.628906 C 27.207031 11.214844 27.179688 11.796875 27.140625 12.382812 C 27.15625 12.363281 27.171875 12.34375 27.1875 12.324219 C 27.625 11.828125 28.160156 11.5625 28.609375 11.398438 C 29.066406 11.238281 29.449219 11.175781 29.710938 11.140625 C 29.972656 11.109375 30.121094 11.109375 30.125 11.132812 C 30.128906 11.15625 29.988281 11.199219 29.738281 11.273438 C 29.488281 11.34375 29.121094 11.441406 28.703125 11.625 C 28.285156 11.804688 27.800781 12.082031 27.433594 12.527344 C 27.300781 12.691406 27.183594 12.878906 27.089844 13.078125 C 27.0625 13.433594 27.027344 13.789062 26.988281 14.140625 C 27.121094 13.992188 27.269531 13.859375 27.421875 13.75 C 27.691406 13.550781 27.972656 13.40625 28.242188 13.277344 C 28.78125 13.03125 29.261719 12.851562 29.636719 12.644531 C 30.40625 12.25 30.679688 11.777344 30.722656 11.808594 C 30.742188 11.816406 30.699219 11.949219 30.550781 12.152344 C 30.40625 12.355469 30.136719 12.613281 29.757812 12.847656 C 29.382812 13.09375 28.890625 13.304688 28.378906 13.558594 C 27.878906 13.816406 27.324219 14.148438 27.011719 14.683594 L 26.878906 14.914062 C 26.835938 15.183594 26.789062 15.457031 26.734375 15.726562 C 26.65625 16.109375 26.5625 16.492188 26.457031 16.871094 C 26.984375 16.296875 27.582031 15.910156 28.023438 15.640625 C 28.578125 15.316406 28.9375 15.15625 28.964844 15.195312 C 28.992188 15.238281 28.671875 15.472656 28.160156 15.84375 C 27.660156 16.21875 26.945312 16.734375 26.394531 17.488281 C 26.308594 17.609375 26.230469 17.730469 26.15625 17.855469 C 26.011719 18.277344 25.859375 18.695312 25.691406 19.113281 C 25.898438 19.003906 26.113281 18.898438 26.328125 18.785156 C 27.046875 18.433594 27.597656 17.960938 27.957031 17.578125 C 28.320312 17.199219 28.507812 16.921875 28.554688 16.949219 C 28.589844 16.96875 28.480469 17.292969 28.148438 17.734375 C 27.824219 18.175781 27.25 18.71875 26.488281 19.09375 C 26.125 19.277344 25.78125 19.429688 25.492188 19.601562 C 24.648438 21.59375 23.558594 23.515625 22.46875 25.273438 C 22.109375 25.855469 21.722656 26.390625 21.3125 26.882812 C 21.546875 26.789062 21.808594 26.699219 22.085938 26.632812 C 22.769531 26.460938 23.417969 26.433594 23.875 26.476562 C 24.335938 26.515625 24.609375 26.609375 24.601562 26.648438 C 24.589844 26.753906 23.476562 26.632812 22.167969 26.964844 C 21.65625 27.089844 21.203125 27.261719 20.839844 27.417969 C 19.371094 28.992188 17.578125 30.082031 15.34375 30.78125 C 13.628906 31.316406 11.847656 31.820312 10.066406 32.105469 C 12.789062 32.710938 15.632812 32.113281 18.28125 31.25 C 19.695312 30.789062 21.148438 30.234375 22.476562 29.496094 C 22.386719 29.523438 22.296875 29.550781 22.203125 29.574219 C 21.910156 29.648438 21.617188 29.703125 21.335938 29.738281 C 21.058594 29.773438 20.800781 29.800781 20.5625 29.851562 C 20.09375 29.957031 19.6875 30.183594 19.304688 30.300781 C 18.921875 30.425781 18.582031 30.4375 18.355469 30.386719 C 18.132812 30.332031 18.03125 30.25 18.042969 30.230469 C 18.054688 30.207031 18.167969 30.246094 18.375 30.25 C 18.578125 30.261719 18.878906 30.214844 19.21875 30.074219 C 19.566406 29.9375 19.957031 29.683594 20.488281 29.546875 C 20.746094 29.476562 21.019531 29.441406 21.292969 29.40625 C 21.566406 29.367188 21.835938 29.3125 22.117188 29.242188 C 22.890625 29.039062 23.570312 28.722656 24.132812 28.414062 C 24.894531 27.824219 25.574219 27.140625 26.136719 26.34375 C 26.808594 25.375 27.160156 24.277344 27.558594 23.195312 C 27.269531 23.433594 26.886719 23.613281 26.460938 23.671875 C 26.273438 23.699219 26.089844 23.699219 25.90625 23.679688 C 25.347656 24.214844 24.765625 24.578125 24.320312 24.78125 C 23.863281 24.996094 23.5625 25.0625 23.546875 25.023438 C 23.503906 24.9375 24.644531 24.488281 25.726562 23.382812 L 25.785156 23.320312 L 25.871094 23.335938 C 26.046875 23.359375 26.230469 23.359375 26.414062 23.332031 C 26.835938 23.273438 27.21875 23.082031 27.488281 22.828125 C 27.757812 22.578125 27.921875 22.273438 28.011719 22 C 28.1875 21.453125 28.097656 21.074219 28.15625 21.066406 C 28.175781 21.058594 28.226562 21.144531 28.261719 21.316406 C 28.277344 21.375 28.285156 21.445312 28.289062 21.519531 C 28.847656 20.484375 29.570312 19.546875 30.125 18.507812 C 30.683594 17.457031 31 16.332031 31.253906 15.183594 C 31.117188 15.316406 30.960938 15.421875 30.800781 15.503906 C 30.597656 15.601562 30.386719 15.648438 30.183594 15.652344 C 29.96875 16.042969 29.648438 16.265625 29.410156 16.363281 C 29.152344 16.46875 28.988281 16.457031 28.984375 16.429688 C 28.972656 16.394531 29.117188 16.34375 29.324219 16.207031 C 29.53125 16.070312 29.804688 15.824219 29.949219 15.445312 L 29.984375 15.355469 L 30.097656 15.351562 C 30.273438 15.347656 30.464844 15.304688 30.644531 15.207031 C 30.824219 15.109375 30.996094 14.972656 31.140625 14.796875 C 31.265625 14.652344 31.359375 14.488281 31.429688 14.328125 C 31.511719 13.925781 31.585938 13.519531 31.671875 13.117188 C 31.671875 13.082031 31.675781 13.046875 31.675781 13.011719 C 31.691406 12.503906 31.691406 12.179688 31.742188 12.175781 C 31.761719 12.175781 31.796875 12.25 31.828125 12.386719 C 31.988281 11.667969 32.179688 10.964844 32.441406 10.277344 Z M 33.105469 19.882812 C 33.550781 19.171875 34.03125 18.484375 34.609375 17.867188 C 33.574219 17.394531 32.496094 17.089844 31.355469 16.957031 C 31.09375 17.835938 30.75 18.6875 30.257812 19.503906 C 30.292969 19.480469 30.332031 19.460938 30.371094 19.441406 C 30.695312 19.269531 31.035156 19.164062 31.335938 19.109375 C 31.488281 19.078125 31.632812 19.050781 31.769531 19.023438 C 31.902344 19 32.027344 18.984375 32.140625 18.964844 C 32.597656 18.898438 32.886719 18.882812 32.894531 18.929688 C 32.90625 18.976562 32.636719 19.078125 32.191406 19.203125 C 32.082031 19.230469 31.960938 19.265625 31.832031 19.300781 C 31.703125 19.339844 31.566406 19.378906 31.421875 19.417969 C 31.128906 19.488281 30.828125 19.589844 30.53125 19.746094 C 30.269531 19.878906 30.039062 20.03125 29.835938 20.195312 C 29.445312 20.839844 29.085938 21.472656 28.757812 22.125 C 28.839844 22.070312 28.921875 22.015625 29.007812 21.964844 C 29.527344 21.660156 30.0625 21.519531 30.453125 21.484375 C 30.84375 21.449219 31.082031 21.5 31.082031 21.542969 C 31.082031 21.59375 30.851562 21.632812 30.496094 21.722656 C 30.140625 21.816406 29.664062 21.980469 29.183594 22.261719 C 28.894531 22.429688 28.644531 22.621094 28.429688 22.804688 C 28.234375 23.246094 28.042969 23.695312 27.871094 24.175781 C 27.398438 25.488281 26.78125 26.671875 25.816406 27.703125 C 24.363281 29.261719 22.476562 30.320312 20.488281 31.117188 C 20.75 31.078125 21.023438 31.035156 21.308594 30.984375 C 23.050781 30.6875 24.390625 30.144531 24.429688 30.234375 C 24.449219 30.277344 24.136719 30.46875 23.589844 30.695312 C 23.042969 30.921875 22.261719 31.167969 21.371094 31.324219 C 20.925781 31.40625 20.496094 31.449219 20.113281 31.492188 C 19.734375 31.535156 19.394531 31.585938 19.117188 31.648438 C 18.980469 31.675781 18.855469 31.710938 18.75 31.746094 C 18.746094 31.746094 18.742188 31.746094 18.738281 31.75 C 18.445312 31.839844 18.273438 31.925781 18.234375 31.914062 C 18.074219 31.960938 17.914062 32.011719 17.753906 32.058594 C 15.09375 32.867188 12.226562 33.339844 9.523438 32.609375 C 10.175781 32.859375 10.828125 33.109375 11.484375 33.355469 C 12.136719 33.609375 12.804688 33.949219 13.519531 33.960938 C 14.230469 33.972656 15.03125 33.90625 15.738281 33.832031 C 15.765625 33.828125 15.792969 33.824219 15.824219 33.824219 C 15.65625 33.792969 15.5 33.753906 15.355469 33.71875 C 14.714844 33.539062 14.355469 33.332031 14.375 33.296875 C 14.394531 33.246094 14.777344 33.371094 15.410156 33.480469 C 15.570312 33.507812 15.742188 33.539062 15.929688 33.550781 C 16.117188 33.578125 16.316406 33.585938 16.527344 33.597656 C 16.726562 33.601562 16.9375 33.597656 17.152344 33.589844 C 17.578125 33.5 18.003906 33.410156 18.429688 33.347656 C 18.675781 33.3125 18.921875 33.277344 19.167969 33.238281 C 19.1875 33.234375 19.210938 33.226562 19.234375 33.222656 C 19.429688 33.152344 19.625 33.089844 19.792969 33.015625 C 19.96875 32.949219 20.128906 32.875 20.273438 32.804688 C 20.851562 32.527344 21.183594 32.300781 21.21875 32.34375 C 21.242188 32.371094 20.996094 32.632812 20.503906 32.945312 C 20.585938 32.921875 20.667969 32.894531 20.746094 32.867188 C 22.15625 32.359375 23.4375 31.484375 24.679688 30.667969 C 26.011719 29.789062 27.144531 28.816406 27.984375 27.453125 C 28.714844 26.257812 29.433594 25.175781 30.355469 24.117188 C 31.308594 23.019531 31.996094 21.742188 32.734375 20.496094 C 32.425781 20.644531 32.113281 20.699219 31.890625 20.695312 C 31.664062 20.691406 31.527344 20.640625 31.527344 20.59375 C 31.53125 20.496094 32.046875 20.453125 32.59375 20.183594 C 32.792969 20.089844 32.964844 19.980469 33.105469 19.882812 Z M 35.289062 17.511719 C 35.464844 17.601562 35.484375 17.859375 35.347656 17.992188 C 34.214844 19.089844 33.507812 20.449219 32.734375 21.796875 C 32.039062 23.011719 31.21875 24.03125 30.3125 25.097656 C 29.265625 26.328125 28.648438 27.839844 27.59375 29.058594 C 26.707031 30.078125 25.5625 30.835938 24.433594 31.558594 C 23.164062 32.367188 21.867188 33.207031 20.402344 33.621094 C 19.632812 33.835938 18.828125 33.894531 18.042969 34.019531 C 17.273438 34.144531 16.515625 34.378906 15.738281 34.445312 C 14.257812 34.570312 13.070312 34.625 11.6875 34.089844 C 9.96875 33.425781 8.246094 32.773438 6.527344 32.117188 C 6.523438 32.117188 6.519531 32.113281 6.515625 32.109375 C 6.285156 32.433594 6.046875 32.75 5.792969 33.058594 C 5.558594 33.347656 5.28125 33.816406 4.910156 33.953125 C 4.335938 34.164062 3.679688 33.605469 3.277344 33.144531 C 3.136719 33.167969 2.992188 33.175781 2.847656 33.15625 C 2.492188 33.105469 2.191406 32.941406 1.996094 32.710938 C 1.894531 32.621094 1.808594 32.496094 1.769531 32.34375 C 1.742188 32.238281 1.738281 32.128906 1.753906 32.019531 C 1.753906 31.988281 1.757812 31.953125 1.761719 31.917969 C 1.71875 31.714844 1.804688 31.523438 1.96875 31.382812 C 2.097656 31.273438 2.191406 31.273438 2.257812 31.101562 C 2.296875 31 2.277344 30.859375 2.304688 30.753906 C 2.421875 30.277344 2.761719 29.914062 3.199219 29.722656 C 3.179688 29.457031 3.242188 29.199219 3.375 28.976562 C 3.355469 28.953125 3.34375 28.925781 3.332031 28.890625 C 1.566406 22.699219 3.257812 15.835938 7.789062 11.199219 C 12.90625 5.96875 20.28125 3.945312 27.164062 2.09375 C 27.292969 2.058594 27.394531 2.101562 27.464844 2.179688 C 27.558594 2.222656 27.628906 2.3125 27.621094 2.445312 C 27.507812 4.800781 27.394531 7.15625 27.28125 9.511719 C 27.273438 9.679688 27.269531 9.847656 27.257812 10.015625 C 29.144531 9.886719 31.027344 9.761719 32.910156 9.632812 C 33.167969 9.613281 33.261719 9.902344 33.175781 10.09375 C 32.285156 12.105469 32.070312 14.28125 31.523438 16.367188 C 32.847656 16.535156 34.089844 16.910156 35.289062 17.511719 " fill-opacity="1" fill-rule="nonzero"/></g><path fill="#9b6723" d="M 34.609375 17.867188 C 34.03125 18.484375 33.550781 19.171875 33.105469 19.882812 C 32.964844 19.980469 32.792969 20.089844 32.59375 20.183594 C 32.046875 20.453125 31.53125 20.496094 31.527344 20.59375 C 31.527344 20.640625 31.664062 20.691406 31.890625 20.695312 C 32.113281 20.699219 32.425781 20.644531 32.734375 20.496094 C 31.996094 21.742188 31.308594 23.019531 30.355469 24.117188 C 29.433594 25.175781 28.714844 26.257812 27.984375 27.453125 C 27.144531 28.816406 26.011719 29.789062 24.679688 30.667969 C 23.4375 31.484375 22.15625 32.359375 20.746094 32.867188 C 20.667969 32.894531 20.585938 32.921875 20.503906 32.945312 C 20.996094 32.632812 21.242188 32.371094 21.21875 32.34375 C 21.183594 32.300781 20.851562 32.527344 20.273438 32.804688 C 20.128906 32.875 19.96875 32.949219 19.792969 33.015625 C 19.625 33.089844 19.429688 33.152344 19.234375 33.222656 C 19.210938 33.226562 19.1875 33.234375 19.167969 33.238281 C 18.921875 33.277344 18.675781 33.3125 18.429688 33.347656 C 18.003906 33.410156 17.578125 33.5 17.152344 33.589844 C 16.9375 33.597656 16.726562 33.601562 16.527344 33.597656 C 16.316406 33.585938 16.117188 33.578125 15.929688 33.550781 C 15.742188 33.539062 15.570312 33.507812 15.410156 33.480469 C 14.777344 33.371094 14.394531 33.246094 14.375 33.296875 C 14.355469 33.332031 14.714844 33.539062 15.355469 33.71875 C 15.5 33.753906 15.65625 33.792969 15.824219 33.824219 C 15.792969 33.824219 15.765625 33.828125 15.738281 33.832031 C 15.03125 33.90625 14.230469 33.972656 13.519531 33.960938 C 12.804688 33.949219 12.136719 33.609375 11.484375 33.355469 C 10.828125 33.109375 10.175781 32.859375 9.523438 32.609375 C 12.226562 33.339844 15.09375 32.867188 17.753906 32.058594 C 17.914062 32.011719 18.074219 31.960938 18.234375 31.914062 C 18.273438 31.925781 18.445312 31.839844 18.738281 31.75 C 18.742188 31.746094 18.746094 31.746094 18.75 31.746094 C 18.855469 31.710938 18.980469 31.675781 19.117188 31.648438 C 19.394531 31.585938 19.734375 31.535156 20.113281 31.492188 C 20.496094 31.449219 20.925781 31.40625 21.371094 31.324219 C 22.261719 31.167969 23.042969 30.921875 23.589844 30.695312 C 24.136719 30.46875 24.449219 30.277344 24.429688 30.234375 C 24.390625 30.144531 23.050781 30.6875 21.308594 30.984375 C 21.023438 31.035156 20.75 31.078125 20.488281 31.117188 C 22.476562 30.320312 24.363281 29.261719 25.816406 27.703125 C 26.78125 26.671875 27.398438 25.488281 27.871094 24.175781 C 28.042969 23.695312 28.234375 23.246094 28.429688 22.804688 C 28.644531 22.621094 28.894531 22.429688 29.183594 22.261719 C 29.664062 21.980469 30.140625 21.816406 30.496094 21.722656 C 30.851562 21.632812 31.082031 21.59375 31.082031 21.542969 C 31.082031 21.5 30.84375 21.449219 30.453125 21.484375 C 30.0625 21.519531 29.527344 21.660156 29.007812 21.964844 C 28.921875 22.015625 28.839844 22.070312 28.757812 22.125 C 29.085938 21.472656 29.445312 20.839844 29.835938 20.195312 C 30.039062 20.03125 30.269531 19.878906 30.53125 19.746094 C 30.828125 19.589844 31.128906 19.488281 31.421875 19.417969 C 31.566406 19.378906 31.703125 19.339844 31.832031 19.300781 C 31.960938 19.265625 32.082031 19.230469 32.191406 19.203125 C 32.636719 19.078125 32.90625 18.976562 32.894531 18.929688 C 32.886719 18.882812 32.597656 18.898438 32.140625 18.964844 C 32.027344 18.984375 31.902344 19 31.769531 19.023438 C 31.632812 19.050781 31.488281 19.078125 31.335938 19.109375 C 31.035156 19.164062 30.695312 19.269531 30.371094 19.441406 C 30.332031 19.460938 30.292969 19.480469 30.257812 19.503906 C 30.75 18.6875 31.09375 17.835938 31.355469 16.957031 C 32.496094 17.089844 33.574219 17.394531 34.609375 17.867188 " fill-opacity="1" fill-rule="nonzero"/><path fill="#9b6723" d="M 27.234375 10.628906 C 28.96875 10.511719 30.703125 10.394531 32.441406 10.277344 C 32.179688 10.964844 31.988281 11.667969 31.828125 12.386719 C 31.796875 12.25 31.761719 12.175781 31.742188 12.175781 C 31.691406 12.179688 31.691406 12.503906 31.675781 13.011719 C 31.675781 13.046875 31.671875 13.082031 31.671875 13.117188 C 31.585938 13.519531 31.511719 13.925781 31.429688 14.328125 C 31.359375 14.488281 31.265625 14.652344 31.140625 14.796875 C 30.996094 14.972656 30.824219 15.109375 30.644531 15.207031 C 30.464844 15.304688 30.273438 15.347656 30.097656 15.351562 L 29.984375 15.355469 L 29.949219 15.445312 C 29.804688 15.824219 29.53125 16.070312 29.324219 16.207031 C 29.117188 16.34375 28.972656 16.394531 28.984375 16.429688 C 28.988281 16.457031 29.152344 16.46875 29.410156 16.363281 C 29.648438 16.265625 29.96875 16.042969 30.183594 15.652344 C 30.386719 15.648438 30.597656 15.601562 30.800781 15.503906 C 30.960938 15.421875 31.117188 15.316406 31.253906 15.183594 C 31 16.332031 30.683594 17.457031 30.125 18.507812 C 29.570312 19.546875 28.847656 20.484375 28.289062 21.519531 C 28.285156 21.445312 28.277344 21.375 28.261719 21.316406 C 28.226562 21.144531 28.175781 21.058594 28.15625 21.066406 C 28.097656 21.074219 28.1875 21.453125 28.011719 22 C 27.921875 22.273438 27.757812 22.578125 27.488281 22.828125 C 27.21875 23.082031 26.835938 23.273438 26.414062 23.332031 C 26.230469 23.359375 26.046875 23.359375 25.871094 23.335938 L 25.785156 23.320312 L 25.726562 23.382812 C 24.644531 24.488281 23.503906 24.9375 23.546875 25.023438 C 23.5625 25.0625 23.863281 24.996094 24.320312 24.78125 C 24.765625 24.578125 25.347656 24.214844 25.90625 23.679688 C 26.089844 23.699219 26.273438 23.699219 26.460938 23.671875 C 26.886719 23.613281 27.269531 23.433594 27.558594 23.195312 C 27.160156 24.277344 26.808594 25.375 26.136719 26.34375 C 25.574219 27.140625 24.894531 27.824219 24.132812 28.414062 C 23.570312 28.722656 22.890625 29.039062 22.117188 29.242188 C 21.835938 29.3125 21.566406 29.367188 21.292969 29.40625 C 21.019531 29.441406 20.746094 29.476562 20.488281 29.546875 C 19.957031 29.683594 19.566406 29.9375 19.21875 30.074219 C 18.878906 30.214844 18.578125 30.261719 18.375 30.25 C 18.167969 30.246094 18.054688 30.207031 18.042969 30.230469 C 18.03125 30.25 18.132812 30.332031 18.355469 30.386719 C 18.582031 30.4375 18.921875 30.425781 19.304688 30.300781 C 19.6875 30.183594 20.09375 29.957031 20.5625 29.851562 C 20.800781 29.800781 21.058594 29.773438 21.335938 29.738281 C 21.617188 29.703125 21.910156 29.648438 22.203125 29.574219 C 22.296875 29.550781 22.386719 29.523438 22.476562 29.496094 C 21.148438 30.234375 19.695312 30.789062 18.28125 31.25 C 15.632812 32.113281 12.789062 32.710938 10.066406 32.105469 C 11.847656 31.820312 13.628906 31.316406 15.34375 30.78125 C 17.578125 30.082031 19.371094 28.992188 20.839844 27.417969 C 21.203125 27.261719 21.65625 27.089844 22.167969 26.964844 C 23.476562 26.632812 24.589844 26.753906 24.601562 26.648438 C 24.609375 26.609375 24.335938 26.515625 23.875 26.476562 C 23.417969 26.433594 22.769531 26.460938 22.085938 26.632812 C 21.808594 26.699219 21.546875 26.789062 21.3125 26.882812 C 21.722656 26.390625 22.109375 25.855469 22.46875 25.273438 C 23.558594 23.515625 24.648438 21.59375 25.492188 19.601562 C 25.78125 19.429688 26.125 19.277344 26.488281 19.09375 C 27.25 18.71875 27.824219 18.175781 28.148438 17.734375 C 28.480469 17.292969 28.589844 16.96875 28.554688 16.949219 C 28.507812 16.921875 28.320312 17.199219 27.957031 17.578125 C 27.597656 17.960938 27.046875 18.433594 26.328125 18.785156 C 26.113281 18.898438 25.898438 19.003906 25.691406 19.113281 C 25.859375 18.695312 26.011719 18.277344 26.15625 17.855469 C 26.230469 17.730469 26.308594 17.609375 26.394531 17.488281 C 26.945312 16.734375 27.660156 16.21875 28.160156 15.84375 C 28.671875 15.472656 28.992188 15.238281 28.964844 15.195312 C 28.9375 15.15625 28.578125 15.316406 28.023438 15.640625 C 27.582031 15.910156 26.984375 16.296875 26.457031 16.871094 C 26.5625 16.492188 26.65625 16.109375 26.734375 15.726562 C 26.789062 15.457031 26.835938 15.183594 26.878906 14.914062 L 27.011719 14.683594 C 27.324219 14.148438 27.878906 13.816406 28.378906 13.558594 C 28.890625 13.304688 29.382812 13.09375 29.757812 12.847656 C 30.136719 12.613281 30.40625 12.355469 30.550781 12.152344 C 30.699219 11.949219 30.742188 11.816406 30.722656 11.808594 C 30.679688 11.777344 30.40625 12.25 29.636719 12.644531 C 29.261719 12.851562 28.78125 13.03125 28.242188 13.277344 C 27.972656 13.40625 27.691406 13.550781 27.421875 13.75 C 27.269531 13.859375 27.121094 13.992188 26.988281 14.140625 C 27.027344 13.789062 27.0625 13.433594 27.089844 13.078125 C 27.183594 12.878906 27.300781 12.691406 27.433594 12.527344 C 27.800781 12.082031 28.285156 11.804688 28.703125 11.625 C 29.121094 11.441406 29.488281 11.34375 29.738281 11.273438 C 29.988281 11.199219 30.128906 11.15625 30.125 11.132812 C 30.121094 11.109375 29.972656 11.109375 29.710938 11.140625 C 29.449219 11.175781 29.066406 11.238281 28.609375 11.398438 C 28.160156 11.5625 27.625 11.828125 27.1875 12.324219 C 27.171875 12.34375 27.15625 12.363281 27.140625 12.382812 C 27.179688 11.796875 27.207031 11.214844 27.234375 10.628906 " fill-opacity="1" fill-rule="nonzero"/><g clip-path="url(#2adf62b345)"><path fill="#ba8028" d="M 8.085938 17.273438 C 8.121094 17.199219 8.179688 17.085938 8.140625 16.925781 C 8.125 16.855469 8.074219 16.785156 8.023438 16.742188 C 7.972656 16.695312 7.925781 16.667969 7.882812 16.648438 C 7.789062 16.601562 7.742188 16.578125 7.691406 16.542969 C 7.640625 16.503906 7.601562 16.457031 7.5625 16.402344 C 7.492188 16.296875 7.445312 16.171875 7.425781 16.046875 C 7.386719 15.796875 7.453125 15.558594 7.523438 15.363281 C 7.679688 14.972656 7.828125 14.726562 7.78125 14.699219 C 7.761719 14.683594 7.703125 14.726562 7.617188 14.820312 C 7.53125 14.914062 7.414062 15.054688 7.300781 15.261719 C 7.191406 15.460938 7.074219 15.75 7.109375 16.085938 C 7.121094 16.25 7.175781 16.425781 7.277344 16.589844 C 7.332031 16.667969 7.394531 16.742188 7.476562 16.808594 C 7.554688 16.875 7.660156 16.921875 7.722656 16.953125 C 7.792969 16.988281 7.808594 17.011719 7.808594 17.015625 C 7.8125 17.019531 7.804688 17.070312 7.777344 17.136719 C 7.707031 17.277344 7.644531 17.445312 7.609375 17.59375 C 7.535156 17.898438 7.539062 18.183594 7.574219 18.414062 C 7.652344 18.878906 7.835938 19.113281 7.871094 19.097656 C 7.921875 19.078125 7.828125 18.816406 7.820312 18.394531 C 7.820312 18.183594 7.839844 17.933594 7.921875 17.675781 C 7.960938 17.542969 8.011719 17.421875 8.085938 17.273438 Z M 12.386719 15.148438 L 12.519531 14.824219 L 12.207031 14.910156 C 12.179688 14.914062 12.117188 14.886719 12.078125 14.828125 C 12.039062 14.777344 12.019531 14.691406 12.015625 14.601562 C 12.003906 14.414062 12 14.214844 11.988281 14.066406 C 11.964844 13.757812 11.925781 13.566406 11.882812 13.566406 C 11.832031 13.566406 11.785156 13.753906 11.746094 14.058594 C 11.726562 14.21875 11.707031 14.386719 11.699219 14.613281 C 11.699219 14.726562 11.707031 14.863281 11.792969 15.007812 C 11.832031 15.074219 11.890625 15.136719 11.964844 15.183594 C 11.972656 15.1875 11.984375 15.191406 11.996094 15.199219 C 11.832031 15.6875 11.894531 16.164062 12.019531 16.46875 C 12.152344 16.796875 12.320312 16.945312 12.355469 16.921875 C 12.402344 16.894531 12.3125 16.707031 12.253906 16.402344 C 12.199219 16.101562 12.179688 15.664062 12.347656 15.234375 Z M 13.472656 8.898438 C 13.648438 8.492188 13.917969 8.371094 13.902344 8.328125 C 13.894531 8.308594 13.8125 8.304688 13.679688 8.367188 C 13.550781 8.429688 13.386719 8.570312 13.253906 8.785156 C 13.117188 8.996094 13.023438 9.269531 12.882812 9.523438 C 12.746094 9.769531 12.515625 10.003906 12.289062 10.304688 C 12.0625 10.613281 11.914062 10.949219 11.832031 11.265625 C 11.75 11.582031 11.734375 11.878906 11.75 12.121094 C 11.789062 12.613281 11.941406 12.882812 11.980469 12.871094 C 12.03125 12.855469 11.96875 12.570312 11.996094 12.121094 C 12.023438 11.675781 12.164062 11.054688 12.570312 10.507812 C 12.773438 10.234375 13.019531 9.976562 13.167969 9.667969 C 13.3125 9.363281 13.378906 9.097656 13.472656 8.898438 Z M 20.382812 23.871094 C 20.789062 23.464844 20.917969 23.125 20.882812 23.105469 C 20.835938 23.078125 20.636719 23.359375 20.21875 23.6875 C 19.804688 24.007812 19.132812 24.363281 18.332031 24.417969 C 18.257812 24.421875 18.183594 24.425781 18.113281 24.425781 C 18.039062 24.425781 17.96875 24.421875 17.898438 24.421875 L 17.820312 24.417969 L 17.769531 24.464844 C 17.253906 24.925781 16.648438 25.144531 16.210938 25.226562 C 15.769531 25.3125 15.488281 25.300781 15.480469 25.347656 C 15.476562 25.382812 15.757812 25.480469 16.242188 25.449219 C 16.703125 25.425781 17.367188 25.238281 17.941406 24.765625 C 17.996094 24.765625 18.054688 24.769531 18.109375 24.769531 C 18.191406 24.769531 18.273438 24.769531 18.355469 24.765625 C 19.253906 24.699219 19.980469 24.265625 20.382812 23.871094 Z M 25.25 7.335938 C 25.847656 6.703125 26.144531 6.25 26.109375 6.222656 C 26.070312 6.1875 25.707031 6.582031 25.074219 7.164062 C 24.589844 7.609375 23.933594 8.15625 23.148438 8.6875 C 23.988281 7.484375 24.703125 6.542969 25.21875 5.902344 C 25.351562 5.742188 25.464844 5.597656 25.566406 5.472656 C 25.667969 5.347656 25.753906 5.246094 25.824219 5.160156 C 25.964844 4.992188 26.03125 4.894531 26.019531 4.886719 C 26.011719 4.875 25.921875 4.949219 25.761719 5.101562 C 25.679688 5.179688 25.582031 5.269531 25.464844 5.382812 C 25.355469 5.503906 25.230469 5.636719 25.085938 5.789062 C 24.519531 6.40625 23.746094 7.34375 22.859375 8.542969 C 22.769531 8.667969 22.671875 8.800781 22.574219 8.933594 C 22.710938 7.886719 23.007812 6.972656 23.289062 6.320312 C 23.609375 5.5625 23.878906 5.125 23.832031 5.097656 C 23.800781 5.074219 23.457031 5.46875 23.066406 6.21875 C 22.679688 6.964844 22.28125 8.085938 22.175781 9.382812 L 22.167969 9.484375 C 21.449219 10.472656 20.644531 11.578125 19.707031 12.707031 C 19.402344 13.066406 19.085938 13.429688 18.75 13.789062 C 18.984375 12.515625 18.921875 11.332031 18.769531 10.492188 C 18.605469 9.585938 18.371094 9.058594 18.332031 9.074219 C 18.277344 9.085938 18.425781 9.632812 18.523438 10.527344 C 18.625 11.417969 18.644531 12.671875 18.351562 14.011719 C 18.34375 14.0625 18.332031 14.113281 18.320312 14.164062 L 18.300781 14.25 C 18.074219 14.476562 17.84375 14.703125 17.597656 14.929688 C 16.816406 15.660156 15.964844 16.390625 15.210938 17.277344 C 15.171875 17.320312 15.140625 17.363281 15.105469 17.40625 C 15.109375 15.878906 14.828125 14.539062 14.511719 13.59375 C 14.335938 13.058594 14.160156 12.644531 14.019531 12.367188 C 13.882812 12.089844 13.792969 11.945312 13.773438 11.953125 C 13.722656 11.972656 14 12.597656 14.289062 13.660156 C 14.574219 14.699219 14.828125 16.191406 14.746094 17.867188 C 14.214844 18.585938 13.78125 19.347656 13.339844 20.046875 C 12.898438 20.746094 12.4375 21.394531 11.957031 22 C 11.9375 21.800781 11.886719 21.613281 11.816406 21.4375 C 11.648438 21.023438 11.417969 20.6875 11.28125 20.34375 C 11.003906 19.660156 10.925781 18.96875 10.789062 18.40625 C 10.664062 17.839844 10.480469 17.390625 10.300781 17.113281 C 10.121094 16.839844 9.976562 16.730469 9.964844 16.738281 C 9.941406 16.757812 10.054688 16.894531 10.191406 17.175781 C 10.328125 17.457031 10.46875 17.890625 10.558594 18.449219 C 10.667969 19.007812 10.710938 19.707031 10.996094 20.460938 C 11.136719 20.835938 11.363281 21.183594 11.503906 21.558594 C 11.617188 21.847656 11.667969 22.191406 11.570312 22.476562 C 11.5625 22.492188 11.546875 22.507812 11.535156 22.523438 C 10.730469 23.496094 9.921875 24.367188 9.179688 25.15625 C 8.964844 25.355469 8.734375 25.582031 8.480469 25.824219 C 8.496094 25.488281 8.464844 25.136719 8.394531 24.785156 C 8.292969 24.277344 8.121094 23.773438 7.957031 23.25 C 7.824219 22.851562 7.691406 22.460938 7.535156 22.089844 C 7.378906 21.71875 7.199219 21.371094 7.011719 21.058594 C 6.632812 20.429688 6.269531 19.894531 6.035156 19.410156 C 5.539062 18.449219 5.578125 17.753906 5.527344 17.753906 C 5.503906 17.75 5.460938 17.921875 5.480469 18.234375 C 5.496094 18.546875 5.585938 19 5.808594 19.515625 C 6.027344 20.027344 6.378906 20.59375 6.730469 21.214844 C 7.09375 21.835938 7.371094 22.5625 7.625 23.355469 C 7.789062 23.875 7.960938 24.375 8.066406 24.851562 C 8.167969 25.328125 8.199219 25.792969 8.125 26.203125 L 8.101562 26.320312 C 8.074219 26.347656 8.050781 26.371094 8.027344 26.398438 C 7.015625 27.496094 6.242188 28.4375 5.75 29.109375 C 5.503906 29.445312 5.320312 29.714844 5.207031 29.90625 C 5.089844 30.089844 5.035156 30.191406 5.046875 30.203125 C 5.0625 30.210938 5.140625 30.125 5.28125 29.957031 C 5.417969 29.785156 5.621094 29.535156 5.890625 29.21875 C 6.210938 28.835938 6.628906 28.355469 7.136719 27.800781 L 7.257812 27.816406 C 8.925781 28.03125 10.390625 28.199219 11.441406 28.308594 C 12.492188 28.417969 13.125 28.460938 13.128906 28.421875 C 13.128906 28.378906 12.507812 28.257812 11.46875 28.089844 C 10.496094 27.933594 9.152344 27.738281 7.621094 27.527344 C 7.859375 27.261719 8.113281 27 8.394531 26.769531 C 8.769531 26.464844 9.183594 26.238281 9.625 26.160156 C 10.0625 26.082031 10.527344 26.109375 10.964844 26.101562 C 11.84375 26.097656 12.632812 26.089844 13.296875 26.078125 C 14.625 26.054688 15.445312 26.019531 15.445312 25.972656 C 15.445312 25.921875 14.628906 25.875 13.296875 25.835938 C 12.636719 25.816406 11.84375 25.796875 10.96875 25.785156 C 10.53125 25.78125 10.066406 25.742188 9.5625 25.828125 C 9.277344 25.875 9 25.980469 8.742188 26.117188 C 9.65625 25.183594 10.714844 24.121094 11.785156 22.871094 C 11.972656 22.773438 12.183594 22.703125 12.40625 22.675781 C 12.871094 22.613281 13.34375 22.6875 13.789062 22.804688 C 14.238281 22.921875 14.671875 23.070312 15.109375 23.164062 C 15.996094 23.351562 16.828125 23.246094 17.464844 23.03125 C 18.105469 22.816406 18.5625 22.503906 18.847656 22.265625 C 19.128906 22.019531 19.25 21.851562 19.234375 21.839844 C 19.214844 21.820312 19.0625 21.957031 18.765625 22.160156 C 18.464844 22.359375 18.007812 22.625 17.390625 22.800781 C 16.777344 22.972656 16 23.046875 15.179688 22.851562 C 14.769531 22.757812 14.339844 22.605469 13.875 22.480469 C 13.414062 22.351562 12.894531 22.261719 12.359375 22.332031 C 12.308594 22.339844 12.261719 22.351562 12.210938 22.359375 C 12.730469 21.71875 13.242188 21.027344 13.714844 20.28125 C 14.167969 19.570312 14.597656 18.828125 15.109375 18.132812 C 15.28125 18.136719 15.453125 18.140625 15.632812 18.152344 C 16.574219 18.222656 17.476562 18.410156 18.316406 18.488281 C 19.152344 18.574219 19.933594 18.53125 20.5625 18.375 C 20.875 18.296875 21.152344 18.195312 21.382812 18.082031 C 21.609375 17.964844 21.796875 17.847656 21.9375 17.730469 C 22.214844 17.503906 22.324219 17.335938 22.3125 17.324219 C 22.289062 17.300781 22.148438 17.4375 21.859375 17.621094 C 21.566406 17.804688 21.113281 18.023438 20.507812 18.136719 C 19.90625 18.253906 19.164062 18.277344 18.347656 18.171875 C 17.53125 18.078125 16.632812 17.882812 15.65625 17.808594 C 15.558594 17.804688 15.464844 17.800781 15.371094 17.796875 C 15.429688 17.71875 15.492188 17.640625 15.558594 17.566406 C 16.28125 16.714844 17.117188 15.988281 17.902344 15.246094 C 18.195312 14.976562 18.472656 14.699219 18.742188 14.414062 C 20.023438 14.589844 21.1875 14.347656 21.960938 14.035156 C 22.808594 13.699219 23.234375 13.332031 23.210938 13.304688 C 23.183594 13.253906 22.714844 13.542969 21.882812 13.808594 C 21.167969 14.039062 20.15625 14.21875 19.039062 14.105469 C 19.390625 13.726562 19.722656 13.34375 20.03125 12.96875 C 21.050781 11.707031 21.890625 10.496094 22.632812 9.429688 C 23.757812 8.75 24.660156 7.960938 25.25 7.335938 Z M 26.984375 2.777344 C 26.890625 4.742188 26.796875 6.707031 26.703125 8.671875 C 26.589844 9.007812 26.445312 9.367188 26.265625 9.726562 C 26.167969 9.917969 26.050781 10.082031 25.914062 10.160156 C 25.773438 10.242188 25.601562 10.242188 25.511719 10.171875 L 25.339844 10.039062 L 25.265625 10.230469 C 25.097656 10.667969 24.820312 10.980469 24.613281 11.171875 C 24.394531 11.367188 24.246094 11.457031 24.265625 11.492188 C 24.277344 11.519531 24.457031 11.484375 24.722656 11.320312 C 24.957031 11.175781 25.253906 10.910156 25.476562 10.507812 C 25.542969 10.535156 25.617188 10.546875 25.691406 10.546875 C 25.824219 10.554688 25.957031 10.519531 26.074219 10.457031 C 26.320312 10.320312 26.464844 10.097656 26.574219 9.886719 C 26.601562 9.824219 26.628906 9.769531 26.65625 9.710938 C 26.605469 10.980469 26.566406 12.265625 26.433594 13.53125 C 26.355469 13.40625 26.277344 13.304688 26.214844 13.230469 C 26.113281 13.117188 26.046875 13.0625 26.027344 13.078125 C 26.007812 13.089844 26.035156 13.167969 26.101562 13.304688 C 26.164062 13.441406 26.265625 13.628906 26.339844 13.863281 C 26.355469 13.925781 26.371094 13.988281 26.378906 14.050781 C 26.359375 14.210938 26.339844 14.371094 26.316406 14.53125 C 26.300781 14.570312 26.277344 14.609375 26.253906 14.644531 C 26.09375 14.90625 25.78125 15.128906 25.453125 15.34375 C 25.28125 15.449219 25.109375 15.523438 24.953125 15.527344 C 24.792969 15.535156 24.648438 15.476562 24.574219 15.382812 L 24.421875 15.1875 L 24.304688 15.394531 C 24.070312 15.824219 23.761719 16.121094 23.53125 16.308594 C 23.296875 16.5 23.144531 16.597656 23.160156 16.632812 C 23.175781 16.660156 23.359375 16.621094 23.640625 16.464844 C 23.886719 16.328125 24.203125 16.089844 24.472656 15.71875 C 24.613281 15.816406 24.792969 15.867188 24.964844 15.863281 C 25.214844 15.859375 25.441406 15.75 25.636719 15.632812 C 25.835938 15.503906 26.03125 15.367188 26.203125 15.207031 C 26.195312 15.265625 26.183594 15.320312 26.175781 15.378906 C 26.011719 16.230469 25.765625 17.050781 25.464844 17.855469 C 25.457031 17.8125 25.445312 17.789062 25.433594 17.789062 C 25.390625 17.789062 25.390625 18.042969 25.183594 18.375 C 25.078125 18.535156 24.925781 18.71875 24.703125 18.859375 C 24.484375 19.003906 24.199219 19.101562 23.898438 19.082031 L 23.765625 19.078125 L 23.730469 19.207031 C 23.644531 19.527344 23.445312 19.851562 23.148438 20.09375 C 22.855469 20.332031 22.496094 20.449219 22.15625 20.464844 C 21.816406 20.484375 21.5 20.398438 21.25 20.273438 L 21.164062 20.226562 L 21.09375 20.289062 C 20.816406 20.539062 20.5 20.640625 20.28125 20.683594 C 20.0625 20.726562 19.925781 20.722656 19.925781 20.75 C 19.917969 20.777344 20.050781 20.832031 20.296875 20.835938 C 20.523438 20.835938 20.859375 20.777344 21.191406 20.550781 C 21.457031 20.695312 21.796875 20.796875 22.167969 20.789062 C 22.570312 20.789062 23.019531 20.648438 23.367188 20.359375 C 23.6875 20.101562 23.910156 19.757812 24.015625 19.402344 C 24.351562 19.382812 24.648438 19.253906 24.863281 19.085938 C 24.929688 19.035156 24.988281 18.984375 25.039062 18.929688 C 24.726562 19.664062 24.382812 20.378906 24.023438 21.089844 C 23.242188 22.644531 22.464844 24.214844 21.484375 25.660156 C 21.378906 25.816406 21.265625 25.96875 21.15625 26.117188 C 21.167969 25.941406 21.140625 25.765625 21.074219 25.609375 C 21.015625 25.457031 20.90625 25.316406 20.765625 25.21875 C 21.21875 24.910156 21.539062 24.582031 21.75 24.324219 C 21.992188 24.027344 22.089844 23.835938 22.066406 23.816406 C 22.039062 23.800781 21.898438 23.960938 21.628906 24.214844 C 21.359375 24.46875 20.953125 24.816406 20.394531 25.125 L 20.058594 25.308594 L 20.4375 25.382812 C 20.75 25.445312 20.945312 25.925781 20.78125 26.300781 C 20.625 26.699219 20.195312 27.019531 19.769531 27.332031 C 19.210938 27.71875 18.601562 27.996094 18.042969 27.953125 C 17.902344 27.9375 17.773438 27.914062 17.644531 27.867188 C 17.511719 27.824219 17.359375 27.769531 17.191406 27.765625 C 17.015625 27.761719 16.863281 27.835938 16.75 27.898438 C 16.632812 27.96875 16.539062 28.03125 16.441406 28.078125 C 16.054688 28.273438 15.679688 28.289062 15.433594 28.277344 C 15.183594 28.261719 15.042969 28.222656 15.035156 28.246094 C 15.027344 28.265625 15.152344 28.351562 15.414062 28.410156 C 15.675781 28.464844 16.085938 28.492188 16.546875 28.296875 C 16.777344 28.203125 16.984375 28.035156 17.183594 28.050781 C 17.285156 28.054688 17.40625 28.101562 17.542969 28.152344 C 17.683594 28.210938 17.847656 28.246094 18.011719 28.265625 C 18.347656 28.300781 18.699219 28.242188 19.027344 28.121094 C 19.222656 28.046875 19.410156 27.953125 19.597656 27.847656 C 18.925781 28.445312 18.179688 28.960938 17.339844 29.367188 C 16.324219 29.851562 15.230469 30.214844 14.128906 30.519531 C 14.226562 30.445312 14.316406 30.371094 14.398438 30.300781 C 14.898438 29.832031 15.113281 29.476562 15.085938 29.449219 C 15.042969 29.414062 14.757812 29.714844 14.238281 30.113281 C 13.980469 30.304688 13.65625 30.515625 13.265625 30.667969 C 12.875 30.820312 12.421875 30.894531 11.953125 30.800781 C 11.667969 30.746094 11.402344 30.628906 11.183594 30.480469 C 10.96875 30.320312 10.808594 30.125 10.710938 29.917969 L 10.644531 29.78125 L 10.515625 29.832031 C 10.007812 30.039062 9.53125 30.066406 9.203125 30.054688 C 8.871094 30.042969 8.675781 30.003906 8.667969 30.039062 C 8.660156 30.0625 8.832031 30.164062 9.179688 30.234375 C 9.496094 30.292969 9.964844 30.3125 10.488281 30.15625 C 10.601562 30.375 10.769531 30.582031 10.980469 30.746094 C 11.21875 30.917969 11.496094 31.046875 11.796875 31.117188 C 11.785156 31.121094 11.769531 31.121094 11.753906 31.125 C 10.933594 31.328125 10.09375 31.527344 9.246094 31.609375 C 8.554688 31.507812 7.96875 31.222656 7.582031 30.960938 C 7.191406 30.703125 6.976562 30.488281 6.933594 30.523438 C 6.902344 30.546875 7.054688 30.828125 7.433594 31.15625 C 7.628906 31.324219 7.890625 31.503906 8.207031 31.652344 C 7.71875 31.640625 7.25 31.566406 6.816406 31.304688 C 6.558594 31.15625 6.347656 30.945312 6.070312 30.832031 C 5.640625 30.644531 5.273438 30.617188 4.917969 30.933594 C 4.683594 31.144531 4.546875 31.519531 4.347656 31.753906 C 4.171875 31.964844 3.964844 32.148438 3.738281 32.300781 C 3.640625 32.378906 3.542969 32.433594 3.449219 32.46875 C 3.351562 32.441406 3.246094 32.460938 3.164062 32.511719 C 2.890625 32.492188 2.640625 32.273438 2.410156 31.859375 C 2.417969 31.84375 2.421875 31.828125 2.425781 31.816406 C 2.511719 31.765625 2.699219 31.621094 2.710938 31.605469 C 2.761719 31.546875 2.796875 31.480469 2.820312 31.414062 C 3.003906 31.359375 3.199219 31.320312 3.382812 31.289062 C 3.464844 31.273438 3.542969 31.257812 3.617188 31.242188 C 3.695312 31.222656 3.808594 31.207031 3.902344 31.101562 C 3.949219 31.050781 3.96875 30.984375 3.972656 30.9375 C 3.980469 30.886719 3.976562 30.847656 3.976562 30.816406 C 3.976562 30.757812 3.980469 30.703125 3.988281 30.652344 C 4.019531 30.4375 4.113281 30.273438 4.183594 30.167969 C 4.257812 30.0625 4.308594 30.003906 4.292969 29.984375 C 4.28125 29.964844 4.199219 29.984375 4.082031 30.078125 C 3.972656 30.164062 3.820312 30.335938 3.746094 30.597656 C 3.707031 30.714844 3.707031 30.9375 3.683594 30.914062 C 3.683594 30.929688 3.484375 30.957031 3.332031 30.972656 C 3.199219 30.992188 3.046875 31.007812 2.894531 31.042969 C 2.96875 30.667969 3.128906 30.375 3.546875 30.242188 C 3.679688 30.199219 3.746094 30.101562 3.761719 29.996094 C 3.8125 29.929688 3.839844 29.847656 3.820312 29.742188 C 3.769531 29.476562 3.894531 29.238281 4.101562 29.078125 C 4.183594 29.015625 4.203125 28.910156 4.183594 28.808594 C 4.25 28.777344 4.3125 28.75 4.382812 28.726562 C 4.433594 28.707031 4.484375 28.703125 4.578125 28.660156 C 4.621094 28.636719 4.675781 28.59375 4.710938 28.542969 C 4.75 28.488281 4.765625 28.421875 4.773438 28.371094 C 4.777344 28.261719 4.753906 28.1875 4.734375 28.125 C 4.71875 28.0625 4.703125 28.015625 4.6875 27.960938 C 4.664062 27.855469 4.648438 27.746094 4.640625 27.644531 C 4.621094 27.441406 4.632812 27.257812 4.65625 27.101562 C 4.699219 26.789062 4.777344 26.597656 4.730469 26.570312 C 4.695312 26.546875 4.53125 26.707031 4.417969 27.042969 C 4.359375 27.210938 4.316406 27.421875 4.316406 27.660156 C 4.320312 27.777344 4.332031 27.902344 4.355469 28.03125 C 4.378906 28.15625 4.433594 28.300781 4.421875 28.339844 C 4.421875 28.347656 4.421875 28.351562 4.421875 28.351562 C 4.421875 28.351562 4.421875 28.351562 4.417969 28.355469 C 4.398438 28.363281 4.328125 28.386719 4.265625 28.410156 C 4.152344 28.453125 4.050781 28.507812 3.957031 28.566406 C 3.933594 28.5625 3.910156 28.558594 3.886719 28.558594 C 3.363281 26.648438 3.175781 24.6875 3.308594 22.753906 C 3.539062 23.214844 3.929688 23.578125 4.367188 23.746094 C 4.179688 24.359375 4.273438 24.921875 4.410156 25.269531 C 4.570312 25.660156 4.753906 25.828125 4.773438 25.808594 C 4.808594 25.789062 4.6875 25.589844 4.597656 25.214844 C 4.507812 24.847656 4.460938 24.28125 4.714844 23.707031 L 4.785156 23.550781 L 4.613281 23.496094 C 4.195312 23.367188 3.804688 23.007812 3.582031 22.527344 C 3.488281 22.328125 3.421875 22.125 3.382812 21.921875 C 3.796875 18.316406 5.316406 14.859375 7.789062 12.105469 C 7.753906 12.269531 7.738281 12.433594 7.742188 12.589844 C 7.75 12.867188 7.839844 13.128906 7.976562 13.332031 C 7.691406 13.566406 7.558594 13.847656 7.503906 14.046875 C 7.441406 14.277344 7.46875 14.414062 7.496094 14.414062 C 7.527344 14.421875 7.558594 14.296875 7.652344 14.101562 C 7.75 13.914062 7.933594 13.65625 8.246094 13.484375 L 8.382812 13.40625 L 8.285156 13.277344 C 8.011719 12.921875 7.992188 12.289062 8.296875 11.753906 C 8.492188 11.40625 8.765625 11.125 9.03125 10.875 C 9.265625 10.65625 9.492188 10.460938 9.683594 10.28125 C 11.40625 8.828125 13.324219 7.667969 15.351562 6.703125 C 15.25 6.867188 15.160156 7.054688 15.105469 7.257812 C 15.03125 7.515625 15.035156 7.804688 15.058594 8.0625 C 15.078125 8.320312 15.097656 8.554688 15.058594 8.761719 C 15.019531 8.972656 14.917969 9.183594 14.847656 9.40625 C 14.703125 9.863281 14.703125 10.296875 14.769531 10.644531 C 14.828125 10.992188 14.953125 11.253906 15.050781 11.421875 C 15.15625 11.585938 15.234375 11.664062 15.253906 11.648438 C 15.304688 11.625 15.070312 11.257812 15.011719 10.613281 C 14.984375 10.292969 15.007812 9.902344 15.148438 9.507812 C 15.21875 9.3125 15.335938 9.097656 15.390625 8.832031 C 15.453125 8.558594 15.425781 8.289062 15.40625 8.035156 C 15.382812 7.78125 15.378906 7.554688 15.4375 7.34375 C 15.492188 7.128906 15.585938 6.929688 15.699219 6.757812 C 15.777344 6.628906 15.871094 6.519531 15.964844 6.414062 C 16.613281 6.121094 17.273438 5.847656 17.9375 5.585938 C 17.914062 5.613281 17.886719 5.632812 17.863281 5.664062 C 17.71875 5.835938 17.605469 6.035156 17.535156 6.242188 C 17.464844 6.449219 17.464844 6.671875 17.457031 6.835938 C 17.453125 7.007812 17.421875 7.125 17.347656 7.246094 C 17.277344 7.367188 17.179688 7.472656 17.089844 7.574219 C 16.910156 7.773438 16.761719 7.96875 16.71875 8.136719 C 16.675781 8.300781 16.710938 8.390625 16.730469 8.390625 C 16.757812 8.390625 16.773438 8.304688 16.84375 8.1875 C 16.914062 8.066406 17.0625 7.925781 17.265625 7.746094 C 17.367188 7.652344 17.484375 7.550781 17.589844 7.40625 C 17.703125 7.261719 17.769531 7.042969 17.777344 6.859375 C 17.792969 6.667969 17.804688 6.507812 17.859375 6.347656 C 17.917969 6.183594 18.007812 6.027344 18.132812 5.882812 C 18.445312 5.511719 18.855469 5.285156 19.238281 5.101562 C 20.136719 4.777344 21.050781 4.480469 21.96875 4.199219 C 21.632812 4.597656 21.425781 5.007812 21.261719 5.300781 C 21.074219 5.65625 20.953125 5.875 20.992188 5.90625 C 21.027344 5.933594 21.226562 5.761719 21.46875 5.429688 C 21.722656 5.109375 22.007812 4.625 22.421875 4.210938 C 22.511719 4.121094 22.613281 4.042969 22.714844 3.972656 C 23.417969 3.761719 24.125 3.5625 24.828125 3.367188 C 24.738281 3.480469 24.660156 3.597656 24.601562 3.703125 C 24.433594 4.007812 24.398438 4.21875 24.4375 4.238281 C 24.484375 4.257812 24.601562 4.085938 24.804688 3.839844 C 24.96875 3.644531 25.199219 3.410156 25.488281 3.183594 C 25.988281 3.046875 26.488281 2.910156 26.984375 2.777344 " fill-opacity="1" fill-rule="nonzero"/></g><path fill="#000000" d="M 26.109375 6.222656 C 26.144531 6.25 25.847656 6.703125 25.25 7.335938 C 24.660156 7.960938 23.757812 8.75 22.632812 9.429688 C 21.890625 10.496094 21.050781 11.707031 20.03125 12.96875 C 19.722656 13.34375 19.390625 13.726562 19.039062 14.105469 C 20.15625 14.21875 21.167969 14.039062 21.882812 13.808594 C 22.714844 13.542969 23.183594 13.253906 23.210938 13.304688 C 23.234375 13.332031 22.808594 13.699219 21.960938 14.035156 C 21.1875 14.347656 20.023438 14.589844 18.742188 14.414062 C 18.472656 14.699219 18.195312 14.976562 17.902344 15.246094 C 17.117188 15.988281 16.28125 16.714844 15.558594 17.566406 C 15.492188 17.640625 15.429688 17.71875 15.371094 17.796875 C 15.464844 17.800781 15.558594 17.804688 15.65625 17.808594 C 16.632812 17.882812 17.53125 18.078125 18.347656 18.171875 C 19.164062 18.277344 19.90625 18.253906 20.507812 18.136719 C 21.113281 18.023438 21.566406 17.804688 21.859375 17.621094 C 22.148438 17.4375 22.289062 17.300781 22.3125 17.324219 C 22.324219 17.335938 22.214844 17.503906 21.9375 17.730469 C 21.796875 17.847656 21.609375 17.964844 21.382812 18.082031 C 21.152344 18.195312 20.875 18.296875 20.5625 18.375 C 19.933594 18.53125 19.152344 18.574219 18.316406 18.488281 C 17.476562 18.410156 16.574219 18.222656 15.632812 18.152344 C 15.453125 18.140625 15.28125 18.136719 15.109375 18.132812 C 14.597656 18.828125 14.167969 19.570312 13.714844 20.28125 C 13.242188 21.027344 12.730469 21.71875 12.210938 22.359375 C 12.261719 22.351562 12.308594 22.339844 12.359375 22.332031 C 12.894531 22.261719 13.414062 22.351562 13.875 22.480469 C 14.339844 22.605469 14.769531 22.757812 15.179688 22.851562 C 16 23.046875 16.777344 22.972656 17.390625 22.800781 C 18.007812 22.625 18.464844 22.359375 18.765625 22.160156 C 19.0625 21.957031 19.214844 21.820312 19.234375 21.839844 C 19.25 21.851562 19.128906 22.019531 18.847656 22.265625 C 18.5625 22.503906 18.105469 22.816406 17.464844 23.03125 C 16.828125 23.246094 15.996094 23.351562 15.109375 23.164062 C 14.671875 23.070312 14.238281 22.921875 13.789062 22.804688 C 13.34375 22.6875 12.871094 22.613281 12.40625 22.675781 C 12.183594 22.703125 11.972656 22.773438 11.785156 22.871094 C 10.714844 24.121094 9.65625 25.183594 8.742188 26.117188 C 9 25.980469 9.277344 25.875 9.5625 25.828125 C 10.066406 25.742188 10.53125 25.78125 10.96875 25.785156 C 11.84375 25.796875 12.636719 25.816406 13.296875 25.835938 C 14.628906 25.875 15.445312 25.921875 15.445312 25.972656 C 15.445312 26.019531 14.625 26.054688 13.296875 26.078125 C 12.632812 26.089844 11.84375 26.097656 10.964844 26.101562 C 10.527344 26.109375 10.0625 26.082031 9.625 26.160156 C 9.183594 26.238281 8.769531 26.464844 8.394531 26.769531 C 8.113281 27 7.859375 27.261719 7.621094 27.527344 C 9.152344 27.738281 10.496094 27.933594 11.46875 28.089844 C 12.507812 28.257812 13.128906 28.378906 13.128906 28.421875 C 13.125 28.460938 12.492188 28.417969 11.441406 28.308594 C 10.390625 28.199219 8.925781 28.03125 7.257812 27.816406 L 7.136719 27.800781 C 6.628906 28.355469 6.210938 28.835938 5.890625 29.21875 C 5.621094 29.535156 5.417969 29.785156 5.28125 29.957031 C 5.140625 30.125 5.0625 30.210938 5.046875 30.203125 C 5.035156 30.191406 5.089844 30.089844 5.207031 29.90625 C 5.320312 29.714844 5.503906 29.445312 5.75 29.109375 C 6.242188 28.4375 7.015625 27.496094 8.027344 26.398438 C 8.050781 26.371094 8.074219 26.347656 8.101562 26.320312 L 8.125 26.203125 C 8.199219 25.792969 8.167969 25.328125 8.066406 24.851562 C 7.960938 24.375 7.789062 23.875 7.625 23.355469 C 7.371094 22.5625 7.09375 21.835938 6.730469 21.214844 C 6.378906 20.59375 6.027344 20.027344 5.808594 19.515625 C 5.585938 19 5.496094 18.546875 5.480469 18.234375 C 5.460938 17.921875 5.503906 17.75 5.527344 17.753906 C 5.578125 17.753906 5.539062 18.449219 6.035156 19.410156 C 6.269531 19.894531 6.632812 20.429688 7.011719 21.058594 C 7.199219 21.371094 7.378906 21.71875 7.535156 22.089844 C 7.691406 22.460938 7.824219 22.851562 7.957031 23.25 C 8.121094 23.773438 8.292969 24.277344 8.394531 24.785156 C 8.464844 25.136719 8.496094 25.488281 8.480469 25.824219 C 8.734375 25.582031 8.964844 25.355469 9.179688 25.15625 C 9.921875 24.367188 10.730469 23.496094 11.535156 22.523438 C 11.546875 22.507812 11.5625 22.492188 11.570312 22.476562 C 11.667969 22.191406 11.617188 21.847656 11.503906 21.558594 C 11.363281 21.183594 11.136719 20.835938 10.996094 20.460938 C 10.710938 19.707031 10.667969 19.007812 10.558594 18.449219 C 10.46875 17.890625 10.328125 17.457031 10.191406 17.175781 C 10.054688 16.894531 9.941406 16.757812 9.964844 16.738281 C 9.976562 16.730469 10.121094 16.839844 10.300781 17.113281 C 10.480469 17.390625 10.664062 17.839844 10.789062 18.40625 C 10.925781 18.96875 11.003906 19.660156 11.28125 20.34375 C 11.417969 20.6875 11.648438 21.023438 11.816406 21.4375 C 11.886719 21.613281 11.9375 21.800781 11.957031 22 C 12.4375 21.394531 12.898438 20.746094 13.339844 20.046875 C 13.78125 19.347656 14.214844 18.585938 14.746094 17.867188 C 14.828125 16.191406 14.574219 14.699219 14.289062 13.660156 C 14 12.597656 13.722656 11.972656 13.773438 11.953125 C 13.792969 11.945312 13.882812 12.089844 14.019531 12.367188 C 14.160156 12.644531 14.335938 13.058594 14.511719 13.59375 C 14.828125 14.539062 15.109375 15.878906 15.105469 17.40625 C 15.140625 17.363281 15.171875 17.320312 15.210938 17.277344 C 15.964844 16.390625 16.816406 15.660156 17.597656 14.929688 C 17.84375 14.703125 18.074219 14.476562 18.300781 14.25 L 18.320312 14.164062 C 18.332031 14.113281 18.34375 14.0625 18.351562 14.011719 C 18.644531 12.671875 18.625 11.417969 18.523438 10.527344 C 18.425781 9.632812 18.277344 9.085938 18.332031 9.074219 C 18.371094 9.058594 18.605469 9.585938 18.769531 10.492188 C 18.921875 11.332031 18.984375 12.515625 18.75 13.789062 C 19.085938 13.429688 19.402344 13.066406 19.707031 12.707031 C 20.644531 11.578125 21.449219 10.472656 22.167969 9.484375 L 22.175781 9.382812 C 22.28125 8.085938 22.679688 6.964844 23.066406 6.21875 C 23.457031 5.46875 23.800781 5.074219 23.832031 5.097656 C 23.878906 5.125 23.609375 5.5625 23.289062 6.320312 C 23.007812 6.972656 22.710938 7.886719 22.574219 8.933594 C 22.671875 8.800781 22.769531 8.667969 22.859375 8.542969 C 23.746094 7.34375 24.519531 6.40625 25.085938 5.789062 C 25.230469 5.636719 25.355469 5.503906 25.464844 5.382812 C 25.582031 5.269531 25.679688 5.179688 25.761719 5.101562 C 25.921875 4.949219 26.011719 4.875 26.019531 4.886719 C 26.03125 4.894531 25.964844 4.992188 25.824219 5.160156 C 25.753906 5.246094 25.667969 5.347656 25.566406 5.472656 C 25.464844 5.597656 25.351562 5.742188 25.21875 5.902344 C 24.703125 6.542969 23.988281 7.484375 23.148438 8.6875 C 23.933594 8.15625 24.589844 7.609375 25.074219 7.164062 C 25.707031 6.582031 26.070312 6.1875 26.109375 6.222656 " fill-opacity="1" fill-rule="nonzero"/><path fill="#000000" d="M 20.882812 23.105469 C 20.917969 23.125 20.789062 23.464844 20.382812 23.871094 C 19.980469 24.265625 19.253906 24.699219 18.355469 24.765625 C 18.273438 24.769531 18.191406 24.769531 18.109375 24.769531 C 18.054688 24.769531 17.996094 24.765625 17.941406 24.765625 C 17.367188 25.238281 16.703125 25.425781 16.242188 25.449219 C 15.757812 25.480469 15.476562 25.382812 15.480469 25.347656 C 15.488281 25.300781 15.769531 25.3125 16.210938 25.226562 C 16.648438 25.144531 17.253906 24.925781 17.769531 24.464844 L 17.820312 24.417969 L 17.898438 24.421875 C 17.96875 24.421875 18.039062 24.425781 18.113281 24.425781 C 18.183594 24.425781 18.257812 24.421875 18.332031 24.417969 C 19.132812 24.363281 19.804688 24.007812 20.21875 23.6875 C 20.636719 23.359375 20.835938 23.078125 20.882812 23.105469 " fill-opacity="1" fill-rule="nonzero"/><path fill="#000000" d="M 13.902344 8.328125 C 13.917969 8.371094 13.648438 8.492188 13.472656 8.898438 C 13.378906 9.097656 13.3125 9.363281 13.167969 9.667969 C 13.019531 9.976562 12.773438 10.234375 12.570312 10.507812 C 12.164062 11.054688 12.023438 11.675781 11.996094 12.121094 C 11.96875 12.570312 12.03125 12.855469 11.980469 12.871094 C 11.941406 12.882812 11.789062 12.613281 11.75 12.121094 C 11.734375 11.878906 11.75 11.582031 11.832031 11.265625 C 11.914062 10.949219 12.0625 10.613281 12.289062 10.304688 C 12.515625 10.003906 12.746094 9.769531 12.882812 9.523438 C 13.023438 9.269531 13.117188 8.996094 13.253906 8.785156 C 13.386719 8.570312 13.550781 8.429688 13.679688 8.367188 C 13.8125 8.304688 13.894531 8.308594 13.902344 8.328125 " fill-opacity="1" fill-rule="nonzero"/><path fill="#000000" d="M 12.519531 14.824219 L 12.386719 15.148438 L 12.347656 15.234375 C 12.179688 15.664062 12.199219 16.101562 12.253906 16.402344 C 12.3125 16.707031 12.402344 16.894531 12.355469 16.921875 C 12.320312 16.945312 12.152344 16.796875 12.019531 16.46875 C 11.894531 16.164062 11.832031 15.6875 11.996094 15.199219 C 11.984375 15.191406 11.972656 15.1875 11.964844 15.183594 C 11.890625 15.136719 11.832031 15.074219 11.792969 15.007812 C 11.707031 14.863281 11.699219 14.726562 11.699219 14.613281 C 11.707031 14.386719 11.726562 14.21875 11.746094 14.058594 C 11.785156 13.753906 11.832031 13.566406 11.882812 13.566406 C 11.925781 13.566406 11.964844 13.757812 11.988281 14.066406 C 12 14.214844 12.003906 14.414062 12.015625 14.601562 C 12.019531 14.691406 12.039062 14.777344 12.078125 14.828125 C 12.117188 14.886719 12.179688 14.914062 12.207031 14.910156 L 12.519531 14.824219 " fill-opacity="1" fill-rule="nonzero"/><path fill="#000000" d="M 8.140625 16.925781 C 8.179688 17.085938 8.121094 17.199219 8.085938 17.273438 C 8.011719 17.421875 7.960938 17.542969 7.921875 17.675781 C 7.839844 17.933594 7.820312 18.183594 7.820312 18.394531 C 7.828125 18.816406 7.921875 19.078125 7.871094 19.097656 C 7.835938 19.113281 7.652344 18.878906 7.574219 18.414062 C 7.539062 18.183594 7.535156 17.898438 7.609375 17.59375 C 7.644531 17.445312 7.707031 17.277344 7.777344 17.136719 C 7.804688 17.070312 7.8125 17.019531 7.808594 17.015625 C 7.808594 17.011719 7.792969 16.988281 7.722656 16.953125 C 7.660156 16.921875 7.554688 16.875 7.476562 16.808594 C 7.394531 16.742188 7.332031 16.667969 7.277344 16.589844 C 7.175781 16.425781 7.121094 16.25 7.109375 16.085938 C 7.074219 15.75 7.191406 15.460938 7.300781 15.261719 C 7.414062 15.054688 7.53125 14.914062 7.617188 14.820312 C 7.703125 14.726562 7.761719 14.683594 7.78125 14.699219 C 7.828125 14.726562 7.679688 14.972656 7.523438 15.363281 C 7.453125 15.558594 7.386719 15.796875 7.425781 16.046875 C 7.445312 16.171875 7.492188 16.296875 7.5625 16.402344 C 7.601562 16.457031 7.640625 16.503906 7.691406 16.542969 C 7.742188 16.578125 7.789062 16.601562 7.882812 16.648438 C 7.925781 16.667969 7.972656 16.695312 8.023438 16.742188 C 8.074219 16.785156 8.125 16.855469 8.140625 16.925781 " fill-opacity="1" fill-rule="nonzero"/><path fill="#9b6723" d="M 5.859375 31.421875 C 5.964844 31.457031 6.058594 31.507812 6.148438 31.570312 C 5.8125 32.050781 5.457031 32.519531 5.074219 32.960938 C 4.8125 33.265625 4.699219 33.390625 4.292969 33.210938 C 4.144531 33.148438 4.011719 33.039062 3.894531 32.914062 C 4.050781 32.832031 4.195312 32.734375 4.328125 32.628906 C 4.816406 32.242188 5.210938 31.222656 5.859375 31.421875 " fill-opacity="1" fill-rule="nonzero"/></svg>